<?xml version="1.0" encoding="UTF-8"?><svg xmlns="http://www.w3.org/2000/svg" xmlns:xlink="http://www.w3.org/1999/xlink" fill-opacity="1" color-rendering="auto" color-interpolation="auto" text-rendering="auto" stroke="black" stroke-linecap="square" width="978" stroke-miterlimit="10" shape-rendering="auto" stroke-opacity="1" fill="black" stroke-dasharray="none" font-weight="normal" stroke-width="1" height="468" font-family="'Dialog'" font-style="normal" stroke-linejoin="miter" font-size="12px" stroke-dashoffset="0" image-rendering="auto">
  <!--Generated by ySVG 2.6-->
  <defs id="genericDefs"/>
  <g>
    <defs id="defs1">
      <clipPath clipPathUnits="userSpaceOnUse" id="clipPath1">
        <path d="M0 0 L978 0 L978 468 L0 468 L0 0 Z"/>
      </clipPath>
      <clipPath clipPathUnits="userSpaceOnUse" id="clipPath2">
        <path d="M211 297 L1189 297 L1189 765 L211 765 L211 297 Z"/>
      </clipPath>
    </defs>
    <g fill="white" text-rendering="geometricPrecision" shape-rendering="geometricPrecision" transform="translate(-211,-297)" stroke="white">
      <rect x="211" width="978" height="468" y="297" clip-path="url(#clipPath2)" stroke="none"/>
    </g>
    <g fill="white" text-rendering="geometricPrecision" shape-rendering="geometricPrecision" transform="matrix(1,0,0,1,-211,-297)" stroke="white">
      <rect x="595.6559" width="34.6881" height="30" y="302" clip-path="url(#clipPath2)" stroke="none"/>
    </g>
    <g text-rendering="geometricPrecision" stroke-miterlimit="1.45" shape-rendering="geometricPrecision" transform="matrix(1,0,0,1,-211,-297)" stroke-linecap="butt">
      <rect fill="none" x="595.6559" width="34.6881" height="30" y="302" clip-path="url(#clipPath2)"/>
      <text x="602.5996" xml:space="preserve" y="321.5352" clip-path="url(#clipPath2)" font-family="sans-serif" stroke="none">SKE</text>
    </g>
    <g fill="white" text-rendering="geometricPrecision" shape-rendering="geometricPrecision" transform="matrix(1,0,0,1,-211,-297)" stroke="white">
      <rect x="282.5217" y="408" clip-path="url(#clipPath2)" width="90.9565" rx="4" ry="4" height="30" stroke="none"/>
    </g>
    <g text-rendering="geometricPrecision" stroke-miterlimit="1.45" shape-rendering="geometricPrecision" transform="matrix(1,0,0,1,-211,-297)" stroke-linecap="butt">
      <rect x="282.5217" y="408" clip-path="url(#clipPath2)" fill="none" width="90.9565" rx="4" ry="4" height="30"/>
      <text x="289.8496" xml:space="preserve" y="427.5352" clip-path="url(#clipPath2)" font-family="sans-serif" stroke="none">Translucency</text>
    </g>
    <g fill="white" text-rendering="geometricPrecision" shape-rendering="geometricPrecision" transform="matrix(1,0,0,1,-211,-297)" stroke="white">
      <rect x="555.0052" y="408" clip-path="url(#clipPath2)" width="94.3766" rx="4" ry="4" height="30" stroke="none"/>
    </g>
    <g text-rendering="geometricPrecision" stroke-miterlimit="1.45" shape-rendering="geometricPrecision" transform="matrix(1,0,0,1,-211,-297)" stroke-linecap="butt">
      <rect x="555.0052" y="408" clip-path="url(#clipPath2)" fill="none" width="94.3766" rx="4" ry="4" height="30"/>
      <text x="559.965" xml:space="preserve" y="427.5352" clip-path="url(#clipPath2)" font-family="sans-serif" stroke="none">Target AI Task</text>
    </g>
    <g fill="white" text-rendering="geometricPrecision" shape-rendering="geometricPrecision" transform="matrix(1,0,0,1,-211,-297)" stroke="white">
      <rect x="735.8006" y="408" clip-path="url(#clipPath2)" width="72.9084" rx="4" ry="4" height="30" stroke="none"/>
    </g>
    <g text-rendering="geometricPrecision" stroke-miterlimit="1.45" shape-rendering="geometricPrecision" transform="matrix(1,0,0,1,-211,-297)" stroke-linecap="butt">
      <rect x="735.8006" y="408" clip-path="url(#clipPath2)" fill="none" width="72.9084" rx="4" ry="4" height="30"/>
      <text x="742.5126" xml:space="preserve" y="427.5352" clip-path="url(#clipPath2)" font-family="sans-serif" stroke="none">Input data</text>
    </g>
    <g fill="white" text-rendering="geometricPrecision" shape-rendering="geometricPrecision" transform="matrix(1,0,0,1,-211,-297)" stroke="white">
      <rect x="895.4191" y="496" clip-path="url(#clipPath2)" width="101.9785" rx="4" ry="4" height="30" stroke="none"/>
    </g>
    <g text-rendering="geometricPrecision" stroke-miterlimit="1.45" shape-rendering="geometricPrecision" transform="matrix(1,0,0,1,-211,-297)" stroke-linecap="butt">
      <rect x="895.4191" y="496" clip-path="url(#clipPath2)" fill="none" width="101.9785" rx="4" ry="4" height="30"/>
      <text x="902.4191" xml:space="preserve" y="515.5352" clip-path="url(#clipPath2)" font-family="sans-serif" stroke="none">Expressiveness</text>
    </g>
    <g fill="white" text-rendering="geometricPrecision" shape-rendering="geometricPrecision" transform="matrix(1,0,0,1,-211,-297)" stroke="white">
      <rect x="1038.6403" y="496" clip-path="url(#clipPath2)" width="48.8842" rx="4" ry="4" height="30" stroke="none"/>
    </g>
    <g text-rendering="geometricPrecision" stroke-miterlimit="1.45" shape-rendering="geometricPrecision" transform="matrix(1,0,0,1,-211,-297)" stroke-linecap="butt">
      <rect x="1038.6403" y="496" clip-path="url(#clipPath2)" fill="none" width="48.8842" rx="4" ry="4" height="30"/>
      <text x="1045.6947" xml:space="preserve" y="515.5352" clip-path="url(#clipPath2)" font-family="sans-serif" stroke="none">Shape</text>
    </g>
    <g fill="white" text-rendering="geometricPrecision" shape-rendering="geometricPrecision" transform="matrix(1,0,0,1,-211,-297)" stroke="white">
      <rect x="940.1278" y="408" clip-path="url(#clipPath2)" width="120.2968" rx="4" ry="4" height="30" stroke="none"/>
    </g>
    <g text-rendering="geometricPrecision" stroke-miterlimit="1.45" shape-rendering="geometricPrecision" transform="matrix(1,0,0,1,-211,-297)" stroke-linecap="butt">
      <rect x="940.1278" y="408" clip-path="url(#clipPath2)" fill="none" width="120.2968" rx="4" ry="4" height="30"/>
      <text x="946.1179" xml:space="preserve" y="427.5352" clip-path="url(#clipPath2)" font-family="sans-serif" stroke="none">Output Knowledge</text>
    </g>
    <g fill="white" text-rendering="geometricPrecision" shape-rendering="geometricPrecision" transform="matrix(1,0,0,1,-211,-297)" stroke="white">
      <rect x="216.8175" y="496" clip-path="url(#clipPath2)" width="82.8445" rx="4" ry="4" height="30" stroke="none"/>
    </g>
    <g text-rendering="geometricPrecision" stroke-miterlimit="1.45" shape-rendering="geometricPrecision" transform="matrix(1,0,0,1,-211,-297)" stroke-linecap="butt">
      <rect x="216.8175" y="496" clip-path="url(#clipPath2)" fill="none" width="82.8445" rx="4" ry="4" height="30"/>
      <text x="223.4673" xml:space="preserve" y="515.5352" clip-path="url(#clipPath2)" font-family="sans-serif" stroke="none">Pedagogical</text>
    </g>
    <g fill="white" text-rendering="geometricPrecision" shape-rendering="geometricPrecision" transform="matrix(1,0,0,1,-211,-297)" stroke="white">
      <rect x="342.4232" y="496" clip-path="url(#clipPath2)" width="109.1847" rx="4" ry="4" height="30" stroke="none"/>
    </g>
    <g text-rendering="geometricPrecision" stroke-miterlimit="1.45" shape-rendering="geometricPrecision" transform="matrix(1,0,0,1,-211,-297)" stroke-linecap="butt">
      <rect x="342.4232" y="496" clip-path="url(#clipPath2)" fill="none" width="109.1847" rx="4" ry="4" height="30"/>
      <text x="348.1278" xml:space="preserve" y="515.5352" clip-path="url(#clipPath2)" font-family="sans-serif" stroke="none">Decompositional</text>
    </g>
    <g fill="silver" text-rendering="geometricPrecision" shape-rendering="geometricPrecision" transform="matrix(1,0,0,1,-211,-297)" stroke="silver">
      <rect x="494.369" y="496" clip-path="url(#clipPath2)" width="87.8245" rx="4" ry="4" height="30" stroke="none"/>
    </g>
    <g text-rendering="geometricPrecision" stroke-miterlimit="1.45" shape-rendering="geometricPrecision" transform="matrix(1,0,0,1,-211,-297)" stroke-linecap="butt">
      <rect x="494.369" y="496" clip-path="url(#clipPath2)" fill="none" width="87.8245" rx="4" ry="4" height="30"/>
      <text x="499.5156" xml:space="preserve" y="515.5352" clip-path="url(#clipPath2)" font-family="sans-serif" stroke="none">Classification</text>
    </g>
    <g fill="silver" text-rendering="geometricPrecision" shape-rendering="geometricPrecision" transform="matrix(1,0,0,1,-211,-297)" stroke="silver">
      <rect x="632.4672" y="496" clip-path="url(#clipPath2)" width="76.6045" rx="4" ry="4" height="30" stroke="none"/>
    </g>
    <g text-rendering="geometricPrecision" stroke-miterlimit="1.45" shape-rendering="geometricPrecision" transform="matrix(1,0,0,1,-211,-297)" stroke-linecap="butt">
      <rect x="632.4672" y="496" clip-path="url(#clipPath2)" fill="none" width="76.6045" rx="4" ry="4" height="30"/>
      <text x="638.8329" xml:space="preserve" y="515.5352" clip-path="url(#clipPath2)" font-family="sans-serif" stroke="none">Regression</text>
    </g>
    <g fill="silver" text-rendering="geometricPrecision" shape-rendering="geometricPrecision" transform="matrix(1,0,0,1,-211,-297)" stroke="silver">
      <rect x="791.4313" y="496" clip-path="url(#clipPath2)" width="50.1202" rx="4" ry="4" height="30" stroke="none"/>
    </g>
    <g text-rendering="geometricPrecision" stroke-miterlimit="1.45" shape-rendering="geometricPrecision" transform="matrix(1,0,0,1,-211,-297)" stroke-linecap="butt">
      <rect x="791.4313" y="496" clip-path="url(#clipPath2)" fill="none" width="50.1202" rx="4" ry="4" height="30"/>
      <text x="798.6789" xml:space="preserve" y="515.5352" clip-path="url(#clipPath2)" font-family="sans-serif" stroke="none">Binary</text>
    </g>
    <g fill="silver" text-rendering="geometricPrecision" shape-rendering="geometricPrecision" transform="matrix(1,0,0,1,-211,-297)" stroke="silver">
      <rect x="791.4313" y="547" clip-path="url(#clipPath2)" width="60.1883" rx="4" ry="4" height="30" stroke="none"/>
    </g>
    <g text-rendering="geometricPrecision" stroke-miterlimit="1.45" shape-rendering="geometricPrecision" transform="matrix(1,0,0,1,-211,-297)" stroke-linecap="butt">
      <rect x="791.4313" y="547" clip-path="url(#clipPath2)" fill="none" width="60.1883" rx="4" ry="4" height="30"/>
      <text x="797.7803" xml:space="preserve" y="566.5352" clip-path="url(#clipPath2)" font-family="sans-serif" stroke="none">Discrete</text>
    </g>
    <g fill="silver" text-rendering="geometricPrecision" shape-rendering="geometricPrecision" transform="matrix(1,0,0,1,-211,-297)" stroke="silver">
      <rect x="785.7613" y="598" clip-path="url(#clipPath2)" width="71.5284" rx="4" ry="4" height="30" stroke="none"/>
    </g>
    <g text-rendering="geometricPrecision" stroke-miterlimit="1.45" shape-rendering="geometricPrecision" transform="matrix(1,0,0,1,-211,-297)" stroke-linecap="butt">
      <rect x="785.7613" y="598" clip-path="url(#clipPath2)" fill="none" width="71.5284" rx="4" ry="4" height="30"/>
      <text x="791.795" xml:space="preserve" y="617.5352" clip-path="url(#clipPath2)" font-family="sans-serif" stroke="none">Continous</text>
    </g>
    <g fill="silver" text-rendering="geometricPrecision" shape-rendering="geometricPrecision" transform="matrix(1,0,0,1,-211,-297)" stroke="silver">
      <rect x="1085.9285" y="577" clip-path="url(#clipPath2)" width="61.3283" rx="4" ry="4" height="30" stroke="none"/>
    </g>
    <g text-rendering="geometricPrecision" stroke-miterlimit="1.45" shape-rendering="geometricPrecision" transform="matrix(1,0,0,1,-211,-297)" stroke-linecap="butt">
      <rect x="1085.9285" y="577" clip-path="url(#clipPath2)" fill="none" width="61.3283" rx="4" ry="4" height="30"/>
      <text x="1091.8632" xml:space="preserve" y="596.5352" clip-path="url(#clipPath2)" font-family="sans-serif" stroke="none">Rule List</text>
    </g>
    <g fill="silver" text-rendering="geometricPrecision" shape-rendering="geometricPrecision" transform="matrix(1,0,0,1,-211,-297)" stroke="silver">
      <rect x="1087.5245" y="628" clip-path="url(#clipPath2)" width="90.1886" rx="4" ry="4" height="30" stroke="none"/>
    </g>
    <g text-rendering="geometricPrecision" stroke-miterlimit="1.45" shape-rendering="geometricPrecision" transform="matrix(1,0,0,1,-211,-297)" stroke-linecap="butt">
      <rect x="1087.5245" y="628" clip-path="url(#clipPath2)" fill="none" width="90.1886" rx="4" ry="4" height="30"/>
      <text x="1092.9391" xml:space="preserve" y="647.5352" clip-path="url(#clipPath2)" font-family="sans-serif" stroke="none">Decision Tree</text>
    </g>
    <g fill="silver" text-rendering="geometricPrecision" shape-rendering="geometricPrecision" transform="matrix(1,0,0,1,-211,-297)" stroke="silver">
      <rect x="1087.5245" y="679" clip-path="url(#clipPath2)" width="95.6726" rx="4" ry="4" height="30" stroke="none"/>
    </g>
    <g text-rendering="geometricPrecision" stroke-miterlimit="1.45" shape-rendering="geometricPrecision" transform="matrix(1,0,0,1,-211,-297)" stroke-linecap="butt">
      <rect x="1087.5245" y="679" clip-path="url(#clipPath2)" fill="none" width="95.6726" rx="4" ry="4" height="30"/>
      <text x="1092.6548" xml:space="preserve" y="698.5352" clip-path="url(#clipPath2)" font-family="sans-serif" stroke="none">Decision Table</text>
    </g>
    <g fill="silver" text-rendering="geometricPrecision" shape-rendering="geometricPrecision" transform="matrix(1,0,0,1,-211,-297)" stroke="silver">
      <rect x="935.2319" y="577" clip-path="url(#clipPath2)" width="88.8925" rx="4" ry="4" height="30" stroke="none"/>
    </g>
    <g text-rendering="geometricPrecision" stroke-miterlimit="1.45" shape-rendering="geometricPrecision" transform="matrix(1,0,0,1,-211,-297)" stroke-linecap="butt">
      <rect x="935.2319" y="577" clip-path="url(#clipPath2)" fill="none" width="88.8925" rx="4" ry="4" height="30"/>
      <text x="941.5308" xml:space="preserve" y="596.5352" clip-path="url(#clipPath2)" font-family="sans-serif" stroke="none">Propositional</text>
    </g>
    <g fill="silver" text-rendering="geometricPrecision" shape-rendering="geometricPrecision" transform="matrix(1,0,0,1,-211,-297)" stroke="silver">
      <rect x="935.2319" y="628" clip-path="url(#clipPath2)" width="45.0442" rx="4" ry="4" height="30" stroke="none"/>
    </g>
    <g text-rendering="geometricPrecision" stroke-miterlimit="1.45" shape-rendering="geometricPrecision" transform="matrix(1,0,0,1,-211,-297)" stroke-linecap="butt">
      <rect x="935.2319" y="628" clip-path="url(#clipPath2)" fill="none" width="45.0442" rx="4" ry="4" height="30"/>
      <text x="940.7999" xml:space="preserve" y="647.5352" clip-path="url(#clipPath2)" font-family="sans-serif" stroke="none">Fuzzy</text>
    </g>
    <g fill="silver" text-rendering="geometricPrecision" shape-rendering="geometricPrecision" transform="matrix(1,0,0,1,-211,-297)" stroke="silver">
      <rect x="935.2319" y="679" clip-path="url(#clipPath2)" width="58.5083" rx="4" ry="4" height="30" stroke="none"/>
    </g>
    <g text-rendering="geometricPrecision" stroke-miterlimit="1.45" shape-rendering="geometricPrecision" transform="matrix(1,0,0,1,-211,-297)" stroke-linecap="butt">
      <rect x="935.2319" y="679" clip-path="url(#clipPath2)" fill="none" width="58.5083" rx="4" ry="4" height="30"/>
      <text x="941.7371" xml:space="preserve" y="698.5352" clip-path="url(#clipPath2)" font-family="sans-serif" stroke="none">Oblique</text>
    </g>
    <g fill="silver" text-rendering="geometricPrecision" shape-rendering="geometricPrecision" transform="matrix(1,0,0,1,-211,-297)" stroke="silver">
      <rect x="935.2319" y="730" clip-path="url(#clipPath2)" width="53.1203" rx="4" ry="4" height="30" stroke="none"/>
    </g>
    <g text-rendering="geometricPrecision" stroke-miterlimit="1.45" shape-rendering="geometricPrecision" transform="matrix(1,0,0,1,-211,-297)" stroke-linecap="butt">
      <rect x="935.2319" y="730" clip-path="url(#clipPath2)" fill="none" width="53.1203" rx="4" ry="4" height="30"/>
      <text x="939.3565" xml:space="preserve" y="749.5352" clip-path="url(#clipPath2)" font-family="sans-serif" stroke="none">M-of-N</text>
    </g>
    <g fill="silver" text-rendering="geometricPrecision" shape-rendering="geometricPrecision" transform="matrix(1,0,0,1,-211,-297)" stroke="silver">
      <rect x="419.5865" y="577" clip-path="url(#clipPath2)" width="39.9082" rx="4" ry="4" height="30" stroke="none"/>
    </g>
    <g text-rendering="geometricPrecision" stroke-miterlimit="1.45" shape-rendering="geometricPrecision" transform="matrix(1,0,0,1,-211,-297)" stroke-linecap="butt">
      <rect x="419.5865" y="577" clip-path="url(#clipPath2)" fill="none" width="39.9082" rx="4" ry="4" height="30"/>
      <text x="426.5357" xml:space="preserve" y="596.5352" clip-path="url(#clipPath2)" font-family="sans-serif" stroke="none">ANN</text>
    </g>
    <g fill="silver" text-rendering="geometricPrecision" shape-rendering="geometricPrecision" transform="matrix(1,0,0,1,-211,-297)" stroke="silver">
      <rect x="419.5865" y="628" clip-path="url(#clipPath2)" width="46.7722" rx="4" ry="4" height="30" stroke="none"/>
    </g>
    <g text-rendering="geometricPrecision" stroke-miterlimit="1.45" shape-rendering="geometricPrecision" transform="matrix(1,0,0,1,-211,-297)" stroke-linecap="butt">
      <rect x="419.5865" y="628" clip-path="url(#clipPath2)" fill="none" width="46.7722" rx="4" ry="4" height="30"/>
      <text x="426.1738" xml:space="preserve" y="647.5352" clip-path="url(#clipPath2)" font-family="sans-serif" stroke="none">ANN3</text>
    </g>
    <g fill="silver" text-rendering="geometricPrecision" shape-rendering="geometricPrecision" transform="matrix(1,0,0,1,-211,-297)" stroke="silver">
      <rect x="339.8551" y="577" clip-path="url(#clipPath2)" width="38.6722" rx="4" ry="4" height="30" stroke="none"/>
    </g>
    <g text-rendering="geometricPrecision" stroke-miterlimit="1.45" shape-rendering="geometricPrecision" transform="matrix(1,0,0,1,-211,-297)" stroke-linecap="butt">
      <rect x="339.8551" y="577" clip-path="url(#clipPath2)" fill="none" width="38.6722" rx="4" ry="4" height="30"/>
      <text x="346.869" xml:space="preserve" y="596.5352" clip-path="url(#clipPath2)" font-family="sans-serif" stroke="none">SVM</text>
    </g>
    <g fill="silver" text-rendering="geometricPrecision" shape-rendering="geometricPrecision" transform="matrix(1,0,0,1,-211,-297)" stroke="silver">
      <rect x="342.4232" y="628" clip-path="url(#clipPath2)" width="36.1041" rx="4" ry="4" height="30" stroke="none"/>
    </g>
    <g text-rendering="geometricPrecision" stroke-miterlimit="1.45" shape-rendering="geometricPrecision" transform="matrix(1,0,0,1,-211,-297)" stroke-linecap="butt">
      <rect x="342.4232" y="628" clip-path="url(#clipPath2)" fill="none" width="36.1041" rx="4" ry="4" height="30"/>
      <text x="348.9352" xml:space="preserve" y="647.5352" clip-path="url(#clipPath2)" font-family="sans-serif" stroke="none">DTE</text>
    </g>
    <g fill="silver" text-rendering="geometricPrecision" shape-rendering="geometricPrecision" transform="matrix(1,0,0,1,-211,-297)" stroke="silver">
      <rect x="419.5865" y="679" clip-path="url(#clipPath2)" width="46.7722" rx="4" ry="4" height="30" stroke="none"/>
    </g>
    <g text-rendering="geometricPrecision" stroke-miterlimit="1.45" shape-rendering="geometricPrecision" transform="matrix(1,0,0,1,-211,-297)" stroke-linecap="butt">
      <rect x="419.5865" y="679" clip-path="url(#clipPath2)" fill="none" width="46.7722" rx="4" ry="4" height="30"/>
      <text x="426.1738" xml:space="preserve" y="698.5352" clip-path="url(#clipPath2)" font-family="sans-serif" stroke="none">ANN4</text>
    </g>
    <g fill="silver" text-rendering="geometricPrecision" shape-rendering="geometricPrecision" transform="matrix(1,0,0,1,-211,-297)" stroke="silver">
      <rect x="350.6552" y="679" clip-path="url(#clipPath2)" width="27.8721" rx="4" ry="4" height="30" stroke="none"/>
    </g>
    <g text-rendering="geometricPrecision" stroke-miterlimit="1.45" shape-rendering="geometricPrecision" transform="matrix(1,0,0,1,-211,-297)" stroke-linecap="butt">
      <rect x="350.6552" y="679" clip-path="url(#clipPath2)" fill="none" width="27.8721" rx="4" ry="4" height="30"/>
      <text x="357.2407" xml:space="preserve" y="698.5352" clip-path="url(#clipPath2)" font-family="sans-serif" stroke="none">LC</text>
      <path fill="none" d="M373.4706 413.2677 L613 362 L613 332" clip-path="url(#clipPath2)"/>
      <path d="M609 340 L617 340 Z" clip-path="url(#clipPath2)" stroke="none"/>
      <path fill="none" stroke-miterlimit="10" d="M609 340 L617 340 Z" clip-path="url(#clipPath2)" stroke-linecap="square"/>
      <path fill="none" d="M604.8054 408.0146 L613 361 L613 332" clip-path="url(#clipPath2)"/>
      <path d="M609 340 L617 340 Z" clip-path="url(#clipPath2)" stroke="none"/>
      <path fill="none" stroke-miterlimit="10" d="M609 340 L617 340 Z" clip-path="url(#clipPath2)" stroke-linecap="square"/>
      <path fill="none" d="M736.7568 409.4031 L613 362 L613 332" clip-path="url(#clipPath2)"/>
      <path d="M609 340 L617 340 Z" clip-path="url(#clipPath2)" stroke="none"/>
      <path fill="none" stroke-miterlimit="10" d="M609 340 L617 340 Z" clip-path="url(#clipPath2)" stroke-linecap="square"/>
      <path fill="none" d="M969.4758 496.0122 L1000.2761 476 L1000.2761 437.9839" clip-path="url(#clipPath2)"/>
      <path d="M996.2761 445.9839 L1004.2761 445.9839 Z" clip-path="url(#clipPath2)" stroke="none"/>
      <path fill="none" stroke-miterlimit="10" d="M996.2761 445.9839 L1004.2761 445.9839 Z" clip-path="url(#clipPath2)" stroke-linecap="square"/>
      <path fill="none" d="M1039.3154 497.7554 L1000.2761 476 L1000.2761 437.9839" clip-path="url(#clipPath2)"/>
      <path d="M996.2761 445.9839 L1004.2761 445.9839 Z" clip-path="url(#clipPath2)" stroke="none"/>
      <path fill="none" stroke-miterlimit="10" d="M996.2761 445.9839 L1004.2761 445.9839 Z" clip-path="url(#clipPath2)" stroke-linecap="square"/>
      <path fill="none" d="M940.0952 413.5209 L613 362 L613 332" clip-path="url(#clipPath2)"/>
      <path d="M609 340 L617 340 Z" clip-path="url(#clipPath2)" stroke="none"/>
      <path fill="none" stroke-miterlimit="10" d="M609 340 L617 340 Z" clip-path="url(#clipPath2)" stroke-linecap="square"/>
      <path fill="none" d="M281.5045 495.9927 L328 466 L328 441.9912" clip-path="url(#clipPath2)"/>
      <path d="M324 445.9912 L332 437.9912 ZM324 437.9912 L332 445.9912 Z" clip-path="url(#clipPath2)" stroke="none"/>
      <path fill="none" stroke-miterlimit="10" d="M324 445.9912 L332 437.9912 ZM324 437.9912 L332 445.9912 Z" clip-path="url(#clipPath2)" stroke-linecap="square"/>
      <path fill="none" d="M373.9991 495.9927 L328 466 L328 441.9912" clip-path="url(#clipPath2)"/>
      <path d="M324 445.9912 L332 437.9912 ZM324 437.9912 L332 445.9912 Z" clip-path="url(#clipPath2)" stroke="none"/>
      <path fill="none" stroke-miterlimit="10" d="M324 445.9912 L332 437.9912 ZM324 437.9912 L332 445.9912 Z" clip-path="url(#clipPath2)" stroke-linecap="square"/>
      <path fill="none" d="M559.0964 496.0186 L602.1935 465 L602.1935 437.9707" clip-path="url(#clipPath2)"/>
      <path d="M598.1935 445.9707 L606.1935 445.9707 Z" clip-path="url(#clipPath2)" stroke="none"/>
      <path fill="none" stroke-miterlimit="10" d="M598.1935 445.9707 L606.1935 445.9707 Z" clip-path="url(#clipPath2)" stroke-linecap="square"/>
      <path fill="none" d="M648.9042 496.0142 L602.1935 464 L602.1935 438.0146" clip-path="url(#clipPath2)"/>
      <path d="M598.1935 446.0146 L606.1935 446.0146 Z" clip-path="url(#clipPath2)" stroke="none"/>
      <path fill="none" stroke-miterlimit="10" d="M598.1935 446.0146 L606.1935 446.0146 Z" clip-path="url(#clipPath2)" stroke-linecap="square"/>
      <path fill="none" d="M791.3923 511 L772.2548 511 L772.2548 437.9961" clip-path="url(#clipPath2)"/>
      <path d="M768.2548 445.9961 L776.2548 445.9961 Z" clip-path="url(#clipPath2)" stroke="none"/>
      <path fill="none" stroke-miterlimit="10" d="M768.2548 445.9961 L776.2548 445.9961 Z" clip-path="url(#clipPath2)" stroke-linecap="square"/>
      <path fill="none" d="M791.4531 562 L772.2548 562 L772.2548 437.9688" clip-path="url(#clipPath2)"/>
      <path d="M768.2548 445.9688 L776.2548 445.9688 Z" clip-path="url(#clipPath2)" stroke="none"/>
      <path fill="none" stroke-miterlimit="10" d="M768.2548 445.9688 L776.2548 445.9688 Z" clip-path="url(#clipPath2)" stroke-linecap="square"/>
      <path fill="none" d="M785.7753 613 L772.2548 613 L772.2548 437.9829" clip-path="url(#clipPath2)"/>
      <path d="M768.2548 445.9829 L776.2548 445.9829 Z" clip-path="url(#clipPath2)" stroke="none"/>
      <path fill="none" stroke-miterlimit="10" d="M768.2548 445.9829 L776.2548 445.9829 Z" clip-path="url(#clipPath2)" stroke-linecap="square"/>
      <path fill="none" d="M1085.9445 592 L1063.0824 592 L1063.0824 529.9897" clip-path="url(#clipPath2)"/>
      <path d="M1059.0824 533.9897 L1067.0824 525.9897 ZM1059.0824 525.9897 L1067.0824 533.9897 Z" clip-path="url(#clipPath2)" stroke="none"/>
      <path fill="none" stroke-miterlimit="10" d="M1059.0824 533.9897 L1067.0824 525.9897 ZM1059.0824 525.9897 L1067.0824 533.9897 Z" clip-path="url(#clipPath2)" stroke-linecap="square"/>
      <path fill="none" d="M1087.4949 643 L1063.0824 643 L1063.0824 529.988" clip-path="url(#clipPath2)"/>
      <path d="M1059.0824 533.988 L1067.0824 525.988 ZM1059.0824 525.988 L1067.0824 533.988 Z" clip-path="url(#clipPath2)" stroke="none"/>
      <path fill="none" stroke-miterlimit="10" d="M1059.0824 533.988 L1067.0824 525.988 ZM1059.0824 525.988 L1067.0824 533.988 Z" clip-path="url(#clipPath2)" stroke-linecap="square"/>
      <path fill="none" d="M1087.5399 694 L1063.0824 694 L1063.0824 529.967" clip-path="url(#clipPath2)"/>
      <path d="M1059.0824 533.967 L1067.0824 525.967 ZM1059.0824 525.967 L1067.0824 533.967 Z" clip-path="url(#clipPath2)" stroke="none"/>
      <path fill="none" stroke-miterlimit="10" d="M1059.0824 533.967 L1067.0824 525.967 ZM1059.0824 525.967 L1067.0824 533.967 Z" clip-path="url(#clipPath2)" stroke-linecap="square"/>
      <path fill="none" d="M935.2556 592 L916.6307 592 L916.6307 530.0189" clip-path="url(#clipPath2)"/>
      <path d="M912.6307 534.0189 L920.6307 526.0189 ZM912.6307 526.0189 L920.6307 534.0189 Z" clip-path="url(#clipPath2)" stroke="none"/>
      <path fill="none" stroke-miterlimit="10" d="M912.6307 534.0189 L920.6307 526.0189 ZM912.6307 526.0189 L920.6307 534.0189 Z" clip-path="url(#clipPath2)" stroke-linecap="square"/>
      <path fill="none" d="M935.2245 643 L916.6307 643 L916.6307 530.0251" clip-path="url(#clipPath2)"/>
      <path d="M912.6307 534.0251 L920.6307 526.0251 ZM912.6307 526.0251 L920.6307 534.0251 Z" clip-path="url(#clipPath2)" stroke="none"/>
      <path fill="none" stroke-miterlimit="10" d="M912.6307 534.0251 L920.6307 526.0251 ZM912.6307 526.0251 L920.6307 534.0251 Z" clip-path="url(#clipPath2)" stroke-linecap="square"/>
      <path fill="none" d="M935.2775 694 L916.6307 694 L916.6307 530.0405" clip-path="url(#clipPath2)"/>
      <path d="M912.6307 534.0405 L920.6307 526.0405 ZM912.6307 526.0405 L920.6307 534.0405 Z" clip-path="url(#clipPath2)" stroke="none"/>
      <path fill="none" stroke-miterlimit="10" d="M912.6307 534.0405 L920.6307 526.0405 ZM912.6307 526.0405 L920.6307 534.0405 Z" clip-path="url(#clipPath2)" stroke-linecap="square"/>
      <path fill="none" d="M935.1981 745 L916.6307 745 L916.6307 530.0251" clip-path="url(#clipPath2)"/>
      <path d="M912.6307 534.0251 L920.6307 526.0251 ZM912.6307 526.0251 L920.6307 534.0251 Z" clip-path="url(#clipPath2)" stroke="none"/>
      <path fill="none" stroke-miterlimit="10" d="M912.6307 534.0251 L920.6307 526.0251 ZM912.6307 526.0251 L920.6307 534.0251 Z" clip-path="url(#clipPath2)" stroke-linecap="square"/>
      <path fill="none" d="M419.5654 592 L397.0155 592 L397.0155 530.0059" clip-path="url(#clipPath2)"/>
      <path d="M393.0155 534.0059 L401.0155 526.0059 ZM393.0155 526.0059 L401.0155 534.0059 Z" clip-path="url(#clipPath2)" stroke="none"/>
      <path fill="none" stroke-miterlimit="10" d="M393.0155 534.0059 L401.0155 526.0059 ZM393.0155 526.0059 L401.0155 534.0059 Z" clip-path="url(#clipPath2)" stroke-linecap="square"/>
      <path fill="none" d="M419.5901 643 L397.0155 643 L397.0155 530.0209" clip-path="url(#clipPath2)"/>
      <path d="M393.0155 534.0209 L401.0155 526.0209 ZM393.0155 526.0209 L401.0155 534.0209 Z" clip-path="url(#clipPath2)" stroke="none"/>
      <path fill="none" stroke-miterlimit="10" d="M393.0155 534.0209 L401.0155 526.0209 ZM393.0155 526.0209 L401.0155 534.0209 Z" clip-path="url(#clipPath2)" stroke-linecap="square"/>
      <path fill="none" d="M378.5097 592 L397.0155 592 L397.0155 529.9897" clip-path="url(#clipPath2)"/>
      <path d="M393.0155 533.9897 L401.0155 525.9897 ZM393.0155 525.9897 L401.0155 533.9897 Z" clip-path="url(#clipPath2)" stroke="none"/>
      <path fill="none" stroke-miterlimit="10" d="M393.0155 533.9897 L401.0155 525.9897 ZM393.0155 525.9897 L401.0155 533.9897 Z" clip-path="url(#clipPath2)" stroke-linecap="square"/>
      <path fill="none" d="M378.4956 643 L397.0155 643 L397.0155 529.9909" clip-path="url(#clipPath2)"/>
      <path d="M393.0155 533.9909 L401.0155 525.9909 ZM393.0155 525.9909 L401.0155 533.9909 Z" clip-path="url(#clipPath2)" stroke="none"/>
      <path fill="none" stroke-miterlimit="10" d="M393.0155 533.9909 L401.0155 525.9909 ZM393.0155 525.9909 L401.0155 533.9909 Z" clip-path="url(#clipPath2)" stroke-linecap="square"/>
      <path fill="none" d="M419.5901 694 L397.0155 694 L397.0155 529.967" clip-path="url(#clipPath2)"/>
      <path d="M393.0155 533.967 L401.0155 525.967 ZM393.0155 525.967 L401.0155 533.967 Z" clip-path="url(#clipPath2)" stroke="none"/>
      <path fill="none" stroke-miterlimit="10" d="M393.0155 533.967 L401.0155 525.967 ZM393.0155 525.967 L401.0155 533.967 Z" clip-path="url(#clipPath2)" stroke-linecap="square"/>
      <path fill="none" d="M378.5552 694 L397.0155 694 L397.0155 529.9761" clip-path="url(#clipPath2)"/>
      <path d="M393.0155 533.9761 L401.0155 525.9761 ZM393.0155 525.9761 L401.0155 533.9761 Z" clip-path="url(#clipPath2)" stroke="none"/>
      <path fill="none" stroke-miterlimit="10" d="M393.0155 533.9761 L401.0155 525.9761 ZM393.0155 525.9761 L401.0155 533.9761 Z" clip-path="url(#clipPath2)" stroke-linecap="square"/>
    </g>
  </g>
</svg>
