<?xml version="1.0" encoding="us-ascii" standalone="no"?><svg xmlns="http://www.w3.org/2000/svg" xmlns:xlink="http://www.w3.org/1999/xlink" contentStyleType="text/css" height="559px" preserveAspectRatio="none" style="width:969px;height:559px;background:#FFFFFF;" version="1.1" viewBox="0 0 969 559" width="969px" zoomAndPan="magnify"><defs/><g><!--cluster logic--><g id="cluster_logic"><path d="M8.5,6 L48.5,6 A3.75,3.75 0 0 1 51,8.5 L58,28.2969 L229.5,28.2969 A2.5,2.5 0 0 1 232,30.7969 L232,429 A2.5,2.5 0 0 1 229.5,431.5 L8.5,431.5 A2.5,2.5 0 0 1 6,429 L6,8.5 A2.5,2.5 0 0 1 8.5,6 " fill="none" style="stroke:#000000;stroke-width:1.5;"/><line style="stroke:#000000;stroke-width:1.5;" x1="6" x2="58" y1="28.2969" y2="28.2969"/><text fill="#000000" font-family="sans-serif" font-size="14" font-weight="bold" lengthAdjust="spacing" textLength="39" x="10" y="20.9951">logic</text></g><!--cluster ski--><g id="cluster_ski"><path d="M258.5,163 L282.5,163 A3.75,3.75 0 0 1 285,165.5 L292,185.2969 L645.5,185.2969 A2.5,2.5 0 0 1 648,187.7969 L648,542 A2.5,2.5 0 0 1 645.5,544.5 L258.5,544.5 A2.5,2.5 0 0 1 256,542 L256,165.5 A2.5,2.5 0 0 1 258.5,163 " fill="none" style="stroke:#000000;stroke-width:1.5;"/><line style="stroke:#000000;stroke-width:1.5;" x1="256" x2="292" y1="185.2969" y2="185.2969"/><text fill="#000000" font-family="sans-serif" font-size="14" font-weight="bold" lengthAdjust="spacing" textLength="23" x="260" y="177.9951">ski</text></g><!--cluster fuzzifiers--><g id="cluster_fuzzifiers"><path d="M674.5,328.5 L752.5,328.5 A3.75,3.75 0 0 1 755,331 L762,350.7969 L959.5,350.7969 A2.5,2.5 0 0 1 962,353.2969 L962,549.5 A2.5,2.5 0 0 1 959.5,552 L674.5,552 A2.5,2.5 0 0 1 672,549.5 L672,331 A2.5,2.5 0 0 1 674.5,328.5 " fill="none" style="stroke:#000000;stroke-width:1.5;"/><line style="stroke:#000000;stroke-width:1.5;" x1="672" x2="762" y1="350.7969" y2="350.7969"/><text fill="#000000" font-family="sans-serif" font-size="14" font-weight="bold" lengthAdjust="spacing" textLength="77" x="676" y="343.4951">fuzzifiers</text></g><!--class Formula--><g id="elem_Formula"><rect codeLine="5" fill="#F1F1F1" height="48" id="Formula" rx="2.5" ry="2.5" style="stroke:#181818;stroke-width:0.5;" width="91" x="73.5" y="222.5"/><ellipse cx="88.5" cy="238.5" fill="#A9DCDF" rx="11" ry="11" style="stroke:#181818;stroke-width:1.0;"/><path d="M90.5781,240.3125 L90.9688,241.2969 L90.5781,241.2969 C90.125,241.2969 90.0156,241.3125 89.8594,241.4219 C89.6094,241.5781 89.4531,241.8594 89.4531,242.1563 C89.4531,242.4219 89.5938,242.6719 89.8125,242.8281 C89.9531,242.9531 90.1563,243 90.5781,243 L92.9375,243 C93.2969,243 93.5156,242.9688 93.6563,242.875 C93.9063,242.7344 94.0625,242.4375 94.0625,242.1563 C94.0625,241.875 93.9219,241.625 93.7031,241.4688 C93.5313,241.3281 93.375,241.2969 92.9063,241.2969 L89.5156,233.0938 L85.8438,233.0938 C85.3906,233.0938 85.2656,233.1094 85.1094,233.2031 C84.8594,233.375 84.7031,233.6563 84.7031,233.9375 C84.7031,234.2188 84.8438,234.4688 85.0625,234.6406 C85.2344,234.75 85.4063,234.7813 85.8438,234.7813 L86.9219,234.7813 L84.2813,241.2969 C83.8594,241.2969 83.7031,241.3125 83.5469,241.4219 C83.2969,241.5781 83.1406,241.8594 83.1406,242.1563 C83.1406,242.7188 83.5156,243 84.2656,243 L86.5313,243 C86.8906,243 87.1094,242.9688 87.2344,242.875 C87.5,242.7344 87.6406,242.4375 87.6406,242.1563 C87.6406,241.875 87.5156,241.625 87.2969,241.4531 C87.125,241.3281 86.9844,241.2969 86.5313,241.2969 L86.1406,241.2969 L86.5313,240.3125 L90.5781,240.3125 Z M89.875,238.6094 L87.2031,238.6094 L88.5469,235.3438 L89.875,238.6094 Z " fill="#000000"/><text fill="#000000" font-family="sans-serif" font-size="14" font-style="italic" lengthAdjust="spacing" textLength="59" x="102.5" y="243.3467">Formula</text><line style="stroke:#181818;stroke-width:0.5;" x1="74.5" x2="163.5" y1="254.5" y2="254.5"/><line style="stroke:#181818;stroke-width:0.5;" x1="74.5" x2="163.5" y1="262.5" y2="262.5"/></g><g id="elem_GMN4"><path d="M63,375.5 L63,415.7656 A0,0 0 0 0 63,415.7656 L175,415.7656 A0,0 0 0 0 175,415.7656 L175,385.5 L165,375.5 L123,375.5 L119,270.771 L115,375.5 L63,375.5 A0,0 0 0 0 63,375.5 " fill="#FEFFDD" style="stroke:#181818;stroke-width:0.5;"/><path d="M165,375.5 L165,385.5 L175,385.5 L165,375.5 " fill="#FEFFDD" style="stroke:#181818;stroke-width:0.5;"/><text fill="#000000" font-family="sans-serif" font-size="13" lengthAdjust="spacing" textLength="91" x="69" y="392.5669">data structure</text><text fill="#000000" font-family="sans-serif" font-size="13" lengthAdjust="spacing" textLength="91" x="69" y="407.6997">for a logic rule</text></g><!--class Theory--><g id="elem_Theory"><rect codeLine="14" fill="#F1F1F1" height="96.8906" id="Theory" rx="2.5" ry="2.5" style="stroke:#181818;stroke-width:0.5;" width="194" x="22" y="41"/><ellipse cx="89.75" cy="57" fill="#ADD1B2" rx="11" ry="11" style="stroke:#181818;stroke-width:1.0;"/><path d="M92.0938,52.6719 C91.1563,52.2344 90.5625,52.0938 89.6875,52.0938 C87.0625,52.0938 85.0625,54.1719 85.0625,56.8906 L85.0625,58.0156 C85.0625,60.5938 87.1719,62.4844 90.0625,62.4844 C91.2813,62.4844 92.4375,62.1875 93.1875,61.6406 C93.7656,61.2344 94.0938,60.7813 94.0938,60.3906 C94.0938,59.9375 93.7031,59.5469 93.2344,59.5469 C93.0156,59.5469 92.8125,59.625 92.625,59.8125 C92.1719,60.2969 92.1719,60.2969 91.9844,60.3906 C91.5625,60.6563 90.875,60.7813 90.1094,60.7813 C88.0625,60.7813 86.7656,59.6875 86.7656,57.9844 L86.7656,56.8906 C86.7656,55.1094 88.0156,53.7969 89.75,53.7969 C90.3281,53.7969 90.9375,53.9531 91.4063,54.2031 C91.8906,54.4844 92.0625,54.7031 92.1563,55.1094 C92.2188,55.5156 92.25,55.6406 92.3906,55.7656 C92.5313,55.9063 92.7656,56.0156 92.9844,56.0156 C93.25,56.0156 93.5156,55.875 93.6875,55.6563 C93.7969,55.5 93.8281,55.3125 93.8281,54.8906 L93.8281,53.4688 C93.8281,53.0313 93.8125,52.9063 93.7188,52.75 C93.5625,52.4844 93.2813,52.3438 92.9844,52.3438 C92.6875,52.3438 92.4844,52.4375 92.2656,52.75 L92.0938,52.6719 Z " fill="#000000"/><text fill="#000000" font-family="sans-serif" font-size="14" lengthAdjust="spacing" textLength="50" x="110.25" y="61.8467">Theory</text><line style="stroke:#181818;stroke-width:0.5;" x1="23" x2="215" y1="73" y2="73"/><text fill="#000000" font-family="sans-serif" font-size="14" lengthAdjust="spacing" textLength="171" x="28" y="89.9951">list[Formula] knowledge</text><text fill="#000000" font-family="sans-serif" font-size="14" lengthAdjust="spacing" textLength="182" x="28" y="106.292">dict[str, int] feature_map</text><text fill="#000000" font-family="sans-serif" font-size="14" lengthAdjust="spacing" textLength="163" x="28" y="122.5889">dict[str, int] class_map</text><line style="stroke:#181818;stroke-width:0.5;" x1="23" x2="215" y1="129.8906" y2="129.8906"/></g><!--class Injector--><g id="elem_Injector"><rect codeLine="26" fill="#F1F1F1" height="96.8906" id="Injector" rx="2.5" ry="2.5" style="stroke:#181818;stroke-width:0.5;" width="217" x="272.5" y="198"/><ellipse cx="349.75" cy="214" fill="#A9DCDF" rx="11" ry="11" style="stroke:#181818;stroke-width:1.0;"/><path d="M351.8281,215.8125 L352.2188,216.7969 L351.8281,216.7969 C351.375,216.7969 351.2656,216.8125 351.1094,216.9219 C350.8594,217.0781 350.7031,217.3594 350.7031,217.6563 C350.7031,217.9219 350.8438,218.1719 351.0625,218.3281 C351.2031,218.4531 351.4063,218.5 351.8281,218.5 L354.1875,218.5 C354.5469,218.5 354.7656,218.4688 354.9063,218.375 C355.1563,218.2344 355.3125,217.9375 355.3125,217.6563 C355.3125,217.375 355.1719,217.125 354.9531,216.9688 C354.7813,216.8281 354.625,216.7969 354.1563,216.7969 L350.7656,208.5938 L347.0938,208.5938 C346.6406,208.5938 346.5156,208.6094 346.3594,208.7031 C346.1094,208.875 345.9531,209.1563 345.9531,209.4375 C345.9531,209.7188 346.0938,209.9688 346.3125,210.1406 C346.4844,210.25 346.6563,210.2813 347.0938,210.2813 L348.1719,210.2813 L345.5313,216.7969 C345.1094,216.7969 344.9531,216.8125 344.7969,216.9219 C344.5469,217.0781 344.3906,217.3594 344.3906,217.6563 C344.3906,218.2188 344.7656,218.5 345.5156,218.5 L347.7813,218.5 C348.1406,218.5 348.3594,218.4688 348.4844,218.375 C348.75,218.2344 348.8906,217.9375 348.8906,217.6563 C348.8906,217.375 348.7656,217.125 348.5469,216.9531 C348.375,216.8281 348.2344,216.7969 347.7813,216.7969 L347.3906,216.7969 L347.7813,215.8125 L351.8281,215.8125 Z M351.125,214.1094 L348.4531,214.1094 L349.7969,210.8438 L351.125,214.1094 Z " fill="#000000"/><text fill="#000000" font-family="sans-serif" font-size="14" font-style="italic" lengthAdjust="spacing" textLength="54" x="370.25" y="218.8467">Injector</text><line style="stroke:#181818;stroke-width:0.5;" x1="273.5" x2="488.5" y1="230" y2="230"/><text fill="#000000" font-family="sans-serif" font-size="14" lengthAdjust="spacing" textLength="115" x="278.5" y="246.9951">Model predictor</text><text fill="#000000" font-family="sans-serif" font-size="14" lengthAdjust="spacing" textLength="85" x="278.5" y="263.292">Str fuzzifier</text><line style="stroke:#181818;stroke-width:0.5;" x1="273.5" x2="488.5" y1="270.5938" y2="270.5938"/><text fill="#000000" font-family="sans-serif" font-size="14" lengthAdjust="spacing" textLength="205" x="278.5" y="287.5889">inject(Theory theory): Model</text></g><path d="M524.5,229 L524.5,237.5664 L393.5,242.1484 L524.5,245.5664 L524.5,254.1328 A0,0 0 0 0 524.5,254.1328 L621.5,254.1328 A0,0 0 0 0 621.5,254.1328 L621.5,239 L611.5,229 L524.5,229 A0,0 0 0 0 524.5,229 " fill="#FEFFDD" style="stroke:#181818;stroke-width:0.5;"/><path d="M611.5,229 L611.5,239 L621.5,239 L611.5,229 " fill="#FEFFDD" style="stroke:#181818;stroke-width:0.5;"/><text fill="#000000" font-family="sans-serif" font-size="13" lengthAdjust="spacing" textLength="76" x="530.5" y="246.0669">uneducated</text><!--class KINS--><g id="elem_KINS"><rect codeLine="35" fill="#F1F1F1" height="64.2969" id="KINS" rx="2.5" ry="2.5" style="stroke:#181818;stroke-width:0.5;" width="71" x="560.5" y="363.5"/><ellipse cx="578.2" cy="379.5" fill="#ADD1B2" rx="11" ry="11" style="stroke:#181818;stroke-width:1.0;"/><path d="M580.5438,375.1719 C579.6063,374.7344 579.0125,374.5938 578.1375,374.5938 C575.5125,374.5938 573.5125,376.6719 573.5125,379.3906 L573.5125,380.5156 C573.5125,383.0938 575.6219,384.9844 578.5125,384.9844 C579.7313,384.9844 580.8875,384.6875 581.6375,384.1406 C582.2156,383.7344 582.5438,383.2813 582.5438,382.8906 C582.5438,382.4375 582.1531,382.0469 581.6844,382.0469 C581.4656,382.0469 581.2625,382.125 581.075,382.3125 C580.6219,382.7969 580.6219,382.7969 580.4344,382.8906 C580.0125,383.1563 579.325,383.2813 578.5594,383.2813 C576.5125,383.2813 575.2156,382.1875 575.2156,380.4844 L575.2156,379.3906 C575.2156,377.6094 576.4656,376.2969 578.2,376.2969 C578.7781,376.2969 579.3875,376.4531 579.8563,376.7031 C580.3406,376.9844 580.5125,377.2031 580.6063,377.6094 C580.6688,378.0156 580.7,378.1406 580.8406,378.2656 C580.9813,378.4063 581.2156,378.5156 581.4344,378.5156 C581.7,378.5156 581.9656,378.375 582.1375,378.1563 C582.2469,378 582.2781,377.8125 582.2781,377.3906 L582.2781,375.9688 C582.2781,375.5313 582.2625,375.4063 582.1688,375.25 C582.0125,374.9844 581.7313,374.8438 581.4344,374.8438 C581.1375,374.8438 580.9344,374.9375 580.7156,375.25 L580.5438,375.1719 Z " fill="#000000"/><text fill="#000000" font-family="sans-serif" font-size="14" lengthAdjust="spacing" textLength="33" x="592.8" y="384.3467">KINS</text><line style="stroke:#181818;stroke-width:0.5;" x1="561.5" x2="630.5" y1="395.5" y2="395.5"/><text fill="#000000" font-family="sans-serif" font-size="14" lengthAdjust="spacing" textLength="59" x="566.5" y="412.4951">int layer</text><line style="stroke:#181818;stroke-width:0.5;" x1="561.5" x2="630.5" y1="419.7969" y2="419.7969"/></g><!--class KILL--><g id="elem_KILL"><rect codeLine="39" fill="#F1F1F1" height="48" id="KILL" rx="2.5" ry="2.5" style="stroke:#181818;stroke-width:0.5;" width="62" x="325" y="371.5"/><ellipse cx="340" cy="387.5" fill="#ADD1B2" rx="11" ry="11" style="stroke:#181818;stroke-width:1.0;"/><path d="M342.3438,383.1719 C341.4063,382.7344 340.8125,382.5938 339.9375,382.5938 C337.3125,382.5938 335.3125,384.6719 335.3125,387.3906 L335.3125,388.5156 C335.3125,391.0938 337.4219,392.9844 340.3125,392.9844 C341.5313,392.9844 342.6875,392.6875 343.4375,392.1406 C344.0156,391.7344 344.3438,391.2813 344.3438,390.8906 C344.3438,390.4375 343.9531,390.0469 343.4844,390.0469 C343.2656,390.0469 343.0625,390.125 342.875,390.3125 C342.4219,390.7969 342.4219,390.7969 342.2344,390.8906 C341.8125,391.1563 341.125,391.2813 340.3594,391.2813 C338.3125,391.2813 337.0156,390.1875 337.0156,388.4844 L337.0156,387.3906 C337.0156,385.6094 338.2656,384.2969 340,384.2969 C340.5781,384.2969 341.1875,384.4531 341.6563,384.7031 C342.1406,384.9844 342.3125,385.2031 342.4063,385.6094 C342.4688,386.0156 342.5,386.1406 342.6406,386.2656 C342.7813,386.4063 343.0156,386.5156 343.2344,386.5156 C343.5,386.5156 343.7656,386.375 343.9375,386.1563 C344.0469,386 344.0781,385.8125 344.0781,385.3906 L344.0781,383.9688 C344.0781,383.5313 344.0625,383.4063 343.9688,383.25 C343.8125,382.9844 343.5313,382.8438 343.2344,382.8438 C342.9375,382.8438 342.7344,382.9375 342.5156,383.25 L342.3438,383.1719 Z " fill="#000000"/><text fill="#000000" font-family="sans-serif" font-size="14" lengthAdjust="spacing" textLength="30" x="354" y="392.3467">KILL</text><line style="stroke:#181818;stroke-width:0.5;" x1="326" x2="386" y1="403.5" y2="403.5"/><line style="stroke:#181818;stroke-width:0.5;" x1="326" x2="386" y1="411.5" y2="411.5"/></g><!--class KBANN--><g id="elem_KBANN"><rect codeLine="41" fill="#F1F1F1" height="80.5938" id="KBANN" rx="2.5" ry="2.5" style="stroke:#181818;stroke-width:0.5;" width="103" x="422.5" y="355"/><ellipse cx="446.95" cy="371" fill="#ADD1B2" rx="11" ry="11" style="stroke:#181818;stroke-width:1.0;"/><path d="M449.2938,366.6719 C448.3563,366.2344 447.7625,366.0938 446.8875,366.0938 C444.2625,366.0938 442.2625,368.1719 442.2625,370.8906 L442.2625,372.0156 C442.2625,374.5938 444.3719,376.4844 447.2625,376.4844 C448.4813,376.4844 449.6375,376.1875 450.3875,375.6406 C450.9656,375.2344 451.2938,374.7813 451.2938,374.3906 C451.2938,373.9375 450.9031,373.5469 450.4344,373.5469 C450.2156,373.5469 450.0125,373.625 449.825,373.8125 C449.3719,374.2969 449.3719,374.2969 449.1844,374.3906 C448.7625,374.6563 448.075,374.7813 447.3094,374.7813 C445.2625,374.7813 443.9656,373.6875 443.9656,371.9844 L443.9656,370.8906 C443.9656,369.1094 445.2156,367.7969 446.95,367.7969 C447.5281,367.7969 448.1375,367.9531 448.6063,368.2031 C449.0906,368.4844 449.2625,368.7031 449.3563,369.1094 C449.4188,369.5156 449.45,369.6406 449.5906,369.7656 C449.7313,369.9063 449.9656,370.0156 450.1844,370.0156 C450.45,370.0156 450.7156,369.875 450.8875,369.6563 C450.9969,369.5 451.0281,369.3125 451.0281,368.8906 L451.0281,367.4688 C451.0281,367.0313 451.0125,366.9063 450.9188,366.75 C450.7625,366.4844 450.4813,366.3438 450.1844,366.3438 C449.8875,366.3438 449.6844,366.4375 449.4656,366.75 L449.2938,366.6719 Z " fill="#000000"/><text fill="#000000" font-family="sans-serif" font-size="14" lengthAdjust="spacing" textLength="50" x="463.05" y="375.8467">KBANN</text><line style="stroke:#181818;stroke-width:0.5;" x1="423.5" x2="524.5" y1="387" y2="387"/><text fill="#000000" font-family="sans-serif" font-size="14" lengthAdjust="spacing" textLength="87" x="428.5" y="403.9951">float omega</text><text fill="#000000" font-family="sans-serif" font-size="14" lengthAdjust="spacing" textLength="91" x="428.5" y="420.292">float gamma</text><line style="stroke:#181818;stroke-width:0.5;" x1="423.5" x2="524.5" y1="427.5938" y2="427.5938"/></g><g id="elem_N1"><path d="M364,503.5 L364,528.6328 L616,528.6328 L616,513.5 L606,503.5 L364,503.5 " fill="#FEFFDD" style="stroke:#181818;stroke-width:0.5;"/><path d="M606,503.5 L606,513.5 L616,513.5 L606,503.5 " fill="#FEFFDD" style="stroke:#181818;stroke-width:1.0;"/><text fill="#000000" font-family="sans-serif" font-size="13" lengthAdjust="spacing" textLength="231" x="370" y="520.5669">hyper-parameters of the algorithms</text></g><!--entity c--><g id="elem_c"><ellipse cx="281" cy="395.5" fill="#F1F1F1" rx="8" ry="8" style="stroke:#181818;stroke-width:0.5;"/></g><!--class Fuzzifier--><g id="elem_Fuzzifier"><rect codeLine="59" fill="#F1F1F1" height="64.2969" id="Fuzzifier" rx="2.5" ry="2.5" style="stroke:#181818;stroke-width:0.5;" width="257" x="688.5" y="363.5"/><ellipse cx="783.25" cy="379.5" fill="#A9DCDF" rx="11" ry="11" style="stroke:#181818;stroke-width:1.0;"/><path d="M785.3281,381.3125 L785.7188,382.2969 L785.3281,382.2969 C784.875,382.2969 784.7656,382.3125 784.6094,382.4219 C784.3594,382.5781 784.2031,382.8594 784.2031,383.1563 C784.2031,383.4219 784.3438,383.6719 784.5625,383.8281 C784.7031,383.9531 784.9063,384 785.3281,384 L787.6875,384 C788.0469,384 788.2656,383.9688 788.4063,383.875 C788.6563,383.7344 788.8125,383.4375 788.8125,383.1563 C788.8125,382.875 788.6719,382.625 788.4531,382.4688 C788.2813,382.3281 788.125,382.2969 787.6563,382.2969 L784.2656,374.0938 L780.5938,374.0938 C780.1406,374.0938 780.0156,374.1094 779.8594,374.2031 C779.6094,374.375 779.4531,374.6563 779.4531,374.9375 C779.4531,375.2188 779.5938,375.4688 779.8125,375.6406 C779.9844,375.75 780.1563,375.7813 780.5938,375.7813 L781.6719,375.7813 L779.0313,382.2969 C778.6094,382.2969 778.4531,382.3125 778.2969,382.4219 C778.0469,382.5781 777.8906,382.8594 777.8906,383.1563 C777.8906,383.7188 778.2656,384 779.0156,384 L781.2813,384 C781.6406,384 781.8594,383.9688 781.9844,383.875 C782.25,383.7344 782.3906,383.4375 782.3906,383.1563 C782.3906,382.875 782.2656,382.625 782.0469,382.4531 C781.875,382.3281 781.7344,382.2969 781.2813,382.2969 L780.8906,382.2969 L781.2813,381.3125 L785.3281,381.3125 Z M784.625,379.6094 L781.9531,379.6094 L783.2969,376.3438 L784.625,379.6094 Z " fill="#000000"/><text fill="#000000" font-family="sans-serif" font-size="14" font-style="italic" lengthAdjust="spacing" textLength="59" x="803.75" y="384.3467">Fuzzifier</text><line style="stroke:#181818;stroke-width:0.5;" x1="689.5" x2="944.5" y1="395.5" y2="395.5"/><line style="stroke:#181818;stroke-width:0.5;" x1="689.5" x2="944.5" y1="403.5" y2="403.5"/><text fill="#000000" font-family="sans-serif" font-size="14" lengthAdjust="spacing" textLength="245" x="694.5" y="420.4951">visit(list[Formula] knowledge): any</text></g><g id="elem_GMN26"><path d="M694.5,496 L694.5,536.2656 A0,0 0 0 0 694.5,536.2656 L939.5,536.2656 A0,0 0 0 0 939.5,536.2656 L939.5,506 L929.5,496 L821,496 L817,427.792 L813,496 L694.5,496 A0,0 0 0 0 694.5,496 " fill="#FEFFDD" style="stroke:#181818;stroke-width:0.5;"/><path d="M929.5,496 L929.5,506 L939.5,506 L929.5,496 " fill="#FEFFDD" style="stroke:#181818;stroke-width:0.5;"/><text fill="#000000" font-family="sans-serif" font-size="13" lengthAdjust="spacing" textLength="170" x="700.5" y="513.0669">Transforms symbolic rules</text><text fill="#000000" font-family="sans-serif" font-size="13" lengthAdjust="spacing" textLength="220" x="700.5" y="528.1997">into a sub-symbolic data structure</text></g><!--reverse link Theory to Formula--><g id="link_Theory_Formula"><path codeLine="20" d="M119,151.315 C119,151.315 119,222.299 119,222.299 " fill="none" id="Theory-backto-Formula" style="stroke:#181818;stroke-width:1.0;"/><polygon fill="#181818" points="119,138.315,115,144.315,119,150.315,123,144.315,119,138.315" style="stroke:#181818;stroke-width:1.0;"/><text fill="#000000" font-family="sans-serif" font-size="13" lengthAdjust="spacing" textLength="8" x="110.4625" y="157.9655">1</text><text fill="#000000" font-family="sans-serif" font-size="13" lengthAdjust="spacing" textLength="8" x="109.975" y="211.2595">n</text></g><!--link KBANN to N1--><g id="link_KBANN_N1"><path codeLine="46" d="M474,436.296 C474,459.783 474,487.6892 474,503.4736 " fill="none" id="KBANN-N1" style="stroke:#181818;stroke-width:1.0;stroke-dasharray:7.0,7.0;"/></g><!--link KINS to N1--><g id="link_KINS_N1"><path codeLine="47" d="M597.5,427.792 C597.5,452.61 597.5,485.5605 597.5,503.3357 " fill="none" id="KINS-N1" style="stroke:#181818;stroke-width:1.0;stroke-dasharray:7.0,7.0;"/></g><!--reverse link Injector to c--><g id="link_Injector_c"><path codeLine="50" d="M281.25,315.288 C281.25,315.288 281.25,386.232 281.25,386.232 " fill="none" id="Injector-backto-c" style="stroke:#181818;stroke-width:1.0;"/><polygon fill="none" points="274.25,315.288,281.25,295.288,288.25,315.288,274.25,315.288" style="stroke:#181818;stroke-width:1.0;"/></g><!--link c to KINS--><g id="link_c_KINS"><path codeLine="51" d="M278,404.717 C278,423.827 278,466 278,466 C278,466 579,466 579,466 C579,466 579,446.395 579,427.861 " fill="none" id="c-KINS" style="stroke:#181818;stroke-width:1.0;"/></g><!--link c to KBANN--><g id="link_c_KBANN"><path codeLine="52" d="M284,404.726 C284,414.335 284,428 284,428 C284,428 366.07,428 422.333,428 " fill="none" id="c-KBANN" style="stroke:#181818;stroke-width:1.0;"/></g><!--link c to KILL--><g id="link_c_KILL"><path codeLine="53" d="M290.196,396 C298.88,396 312.405,396 324.94,396 " fill="none" id="c-KILL" style="stroke:#181818;stroke-width:1.0;"/></g><!--link Theory to Injector--><g id="link_Theory_Injector"><path codeLine="69" d="M195.5,138.219 C195.5,172.021 195.5,211 195.5,211 C195.5,211 267.289,211 267.289,211 " fill="none" id="Theory-to-Injector" style="stroke:#181818;stroke-width:1.0;stroke-dasharray:7.0,7.0;"/><polygon fill="#181818" points="272.289,211,263.289,207,267.289,211,263.289,215,272.289,211" style="stroke:#181818;stroke-width:1.0;"/><text fill="#000000" font-family="sans-serif" font-size="13" lengthAdjust="spacing" textLength="8" x="197.2422" y="157.8566">1</text></g><!--reverse link Injector to Fuzzifier--><g id="link_Injector_Fuzzifier"><path codeLine="70" d="M494.616,280 C494.616,280 817,280 817,280 C817,280 817,329.151 817,363.327 " fill="none" id="Injector-backto-Fuzzifier" style="stroke:#181818;stroke-width:1.0;stroke-dasharray:7.0,7.0;"/><polygon fill="#181818" points="489.616,280,498.616,284,494.616,280,498.616,276,489.616,280" style="stroke:#181818;stroke-width:1.0;"/><text fill="#000000" font-family="sans-serif" font-size="13" lengthAdjust="spacing" textLength="8" x="808.175" y="352.1944">1</text></g><!--SRC=[TLDDJ-Cm4BtdLunoOX6fnBLQhGI7bH2b5xWXXAQEatZhZyYUx2gK_lSTEnya2AHKgTzuvisyUGb7PLlqQ40hAwbl9JXFZSko5iKHQmdQrKgSiWm03u4y2eBVpfjEuuanVixyiuua71oHC-2gwG8704ea14xi17LU9gXo7d0e3BxJ4PIsJ4MoI2GqXW1FZNI-FwKChG8zZrLVu6ZTFotBUgXMAa7FJ705oj8BL18ZqQl1zgjmgZq6pv5ie87yEeVBee3SvdFxsVb3Xd1KQn7kx1yfoFdKu8ChfORMoyZcV8GUoKFLlRsfIia4g9HmCV9HUltO3gbB6Rsg6uegJWpRxQemT5QMdK2IvKguIRVxk_tZe1eF31hxH7zUNjZjJilpxSr-FsHKsY5p6rdZuboZCRXiCM_OABv8nf4aVOZjyaI0kdPUKMD23XXWVyqPgJniDkE9kniFiG7bXUPwaAuBHgQXuUSxRoCY0egKDVsDvMPujrjjQHOyV7BiX0zZmbyL55ryuofU2jh-6sSlDmfF7crWDvi0eJS7fqT3Xqb-npuFtQ6Oe-kl0LOBv3aMPjniVirYP1-gi7GnElVn7m00]--></g></svg>