<?xml version="1.0" encoding="UTF-8"?><svg xmlns="http://www.w3.org/2000/svg" xmlns:xlink="http://www.w3.org/1999/xlink" fill-opacity="1" color-rendering="auto" color-interpolation="auto" text-rendering="auto" stroke="black" stroke-linecap="square" width="1066" stroke-miterlimit="10" shape-rendering="auto" stroke-opacity="1" fill="black" stroke-dasharray="none" font-weight="normal" stroke-width="1" height="591" font-family="'Dialog'" font-style="normal" stroke-linejoin="miter" font-size="12px" stroke-dashoffset="0" image-rendering="auto">
  <!--Generated by ySVG 2.6-->
  <defs id="genericDefs"/>
  <g>
    <defs id="defs1">
      <clipPath clipPathUnits="userSpaceOnUse" id="clipPath1">
        <path d="M0 0 L1066 0 L1066 591 L0 591 L0 0 Z"/>
      </clipPath>
      <clipPath clipPathUnits="userSpaceOnUse" id="clipPath2">
        <path d="M195 322 L1261 322 L1261 913 L195 913 L195 322 Z"/>
      </clipPath>
      <clipPath clipPathUnits="userSpaceOnUse" id="clipPath3">
        <path d="M876.9688 317.75 L-189.0312 317.75 L-189.0312 -273.25 L876.9688 -273.25 L876.9688 317.75 Z"/>
      </clipPath>
      <clipPath clipPathUnits="userSpaceOnUse" id="clipPath4">
        <path d="M876.9181 317.75 L-189.0819 317.75 L-189.0819 -273.25 L876.9181 -273.25 L876.9181 317.75 Z"/>
      </clipPath>
      <clipPath clipPathUnits="userSpaceOnUse" id="clipPath5">
        <path d="M876.9733 317.75 L-189.0267 317.75 L-189.0267 -273.25 L876.9733 -273.25 L876.9733 317.75 Z"/>
      </clipPath>
    </defs>
    <g fill="white" text-rendering="geometricPrecision" shape-rendering="geometricPrecision" transform="translate(-195,-322)" stroke="white">
      <rect x="195" width="1066" height="591" y="322" clip-path="url(#clipPath2)" stroke="none"/>
    </g>
    <g fill="white" text-rendering="geometricPrecision" shape-rendering="geometricPrecision" transform="matrix(1,0,0,1,-195,-322)" stroke="white">
      <rect x="621.4735" width="34.6881" height="30" y="327" clip-path="url(#clipPath2)" stroke="none"/>
    </g>
    <g text-rendering="geometricPrecision" stroke-miterlimit="1.45" shape-rendering="geometricPrecision" transform="matrix(1,0,0,1,-195,-322)" stroke-linecap="butt">
      <rect fill="none" x="621.4735" width="34.6881" height="30" y="327" clip-path="url(#clipPath2)"/>
      <text x="629.9406" xml:space="preserve" y="346.5352" clip-path="url(#clipPath2)" font-family="sans-serif" stroke="none">SKI</text>
    </g>
    <g fill="white" text-rendering="geometricPrecision" shape-rendering="geometricPrecision" transform="matrix(1,0,0,1,-195,-322)" stroke="white">
      <rect x="281.9863" y="433" clip-path="url(#clipPath2)" width="109.1847" rx="4" ry="4" height="30" stroke="none"/>
    </g>
    <g text-rendering="geometricPrecision" stroke-miterlimit="1.45" shape-rendering="geometricPrecision" transform="matrix(1,0,0,1,-195,-322)" stroke-linecap="butt">
      <rect x="281.9863" y="433" clip-path="url(#clipPath2)" fill="none" width="109.1847" rx="4" ry="4" height="30"/>
      <text x="287.5972" xml:space="preserve" y="452.5352" clip-path="url(#clipPath2)" font-family="sans-serif" stroke="none">Input Knowledge</text>
    </g>
    <g fill="white" text-rendering="geometricPrecision" shape-rendering="geometricPrecision" transform="matrix(1,0,0,1,-195,-322)" stroke="white">
      <rect x="592.2468" y="433" clip-path="url(#clipPath2)" width="71.5284" rx="4" ry="4" height="30" stroke="none"/>
    </g>
    <g text-rendering="geometricPrecision" stroke-miterlimit="1.45" shape-rendering="geometricPrecision" transform="matrix(1,0,0,1,-195,-322)" stroke-linecap="butt">
      <rect x="592.2468" y="433" clip-path="url(#clipPath2)" fill="none" width="71.5284" rx="4" ry="4" height="30"/>
      <text x="604.304" xml:space="preserve" y="452.5352" clip-path="url(#clipPath2)" font-family="sans-serif" stroke="none">Strategy</text>
    </g>
    <g fill="silver" text-rendering="geometricPrecision" shape-rendering="geometricPrecision" transform="matrix(1,0,0,1,-195,-322)" stroke="silver">
      <rect x="808.0723" y="565" clip-path="url(#clipPath2)" width="109.1847" rx="4" ry="4" height="30" stroke="none"/>
    </g>
    <g text-rendering="geometricPrecision" stroke-miterlimit="1.45" shape-rendering="geometricPrecision" transform="matrix(1,0,0,1,-195,-322)" stroke-linecap="butt">
      <rect x="808.0723" y="565" clip-path="url(#clipPath2)" fill="none" width="109.1847" rx="4" ry="4" height="30"/>
      <text x="814.4156" xml:space="preserve" y="584.5352" clip-path="url(#clipPath2)" font-family="sans-serif" stroke="none">Neural Networks</text>
    </g>
    <g fill="white" text-rendering="geometricPrecision" shape-rendering="geometricPrecision" transform="matrix(1,0,0,1,-195,-322)" stroke="white">
      <rect x="934.7332" y="521" clip-path="url(#clipPath2)" width="93.8246" rx="4" ry="4" height="73.75" stroke="none"/>
    </g>
    <g text-rendering="geometricPrecision" stroke-miterlimit="1.45" shape-rendering="geometricPrecision" transform="matrix(1,0,0,1,-195,-322)" stroke-linecap="butt">
      <rect x="934.7332" y="521" clip-path="url(#clipPath2)" fill="none" width="93.8246" rx="4" ry="4" height="73.75"/>
      <text x="955.6738" xml:space="preserve" y="548.2773" clip-path="url(#clipPath2)" font-family="sans-serif" stroke="none">Symbolic</text>
      <text x="949.7588" xml:space="preserve" y="562.4102" clip-path="url(#clipPath2)" font-family="sans-serif" stroke="none">Knowledge</text>
      <text x="943.7705" xml:space="preserve" y="576.543" clip-path="url(#clipPath2)" font-family="sans-serif" stroke="none">Manipulation</text>
    </g>
    <g fill="white" text-rendering="geometricPrecision" shape-rendering="geometricPrecision" transform="matrix(1,0,0,1,-195,-322)" stroke="white">
      <rect x="1062.1357" y="521" clip-path="url(#clipPath2)" width="71.5284" rx="4" ry="4" height="73.75" stroke="none"/>
    </g>
    <g text-rendering="geometricPrecision" stroke-miterlimit="1.45" shape-rendering="geometricPrecision" transform="matrix(1,0,0,1,-195,-322)" stroke-linecap="butt">
      <rect x="1062.1357" y="521" clip-path="url(#clipPath2)" fill="none" width="71.5284" rx="4" ry="4" height="73.75"/>
      <text x="1072.6665" xml:space="preserve" y="548.2773" clip-path="url(#clipPath2)" font-family="sans-serif" stroke="none">Learning</text>
      <text x="1075.0073" xml:space="preserve" y="562.4102" clip-path="url(#clipPath2)" font-family="sans-serif" stroke="none">Support</text>
      <text x="1076.0356" xml:space="preserve" y="576.543" clip-path="url(#clipPath2)" font-family="sans-serif" stroke="none">(Enrich)</text>
    </g>
    <g fill="white" text-rendering="geometricPrecision" shape-rendering="geometricPrecision" transform="matrix(1,0,0,1,-195,-322)" stroke="white">
      <rect x="1004.7353" y="433" clip-path="url(#clipPath2)" width="60.7168" rx="4" ry="4" height="30" stroke="none"/>
    </g>
    <g text-rendering="geometricPrecision" stroke-miterlimit="1.45" shape-rendering="geometricPrecision" transform="matrix(1,0,0,1,-195,-322)" stroke-linecap="butt">
      <rect x="1004.7353" y="433" clip-path="url(#clipPath2)" fill="none" width="60.7168" rx="4" ry="4" height="30"/>
      <text x="1011.7353" xml:space="preserve" y="452.5352" clip-path="url(#clipPath2)" font-family="sans-serif" stroke="none">Purpose</text>
    </g>
    <g fill="white" text-rendering="geometricPrecision" shape-rendering="geometricPrecision" transform="matrix(1,0,0,1,-195,-322)" stroke="white">
      <rect x="200.7051" y="521" clip-path="url(#clipPath2)" width="120.2968" rx="4" ry="4" height="30" stroke="none"/>
    </g>
    <g text-rendering="geometricPrecision" stroke-miterlimit="1.45" shape-rendering="geometricPrecision" transform="matrix(1,0,0,1,-195,-322)" stroke-linecap="butt">
      <rect x="200.7051" y="521" clip-path="url(#clipPath2)" fill="none" width="120.2968" rx="4" ry="4" height="30"/>
      <text x="208.3183" xml:space="preserve" y="540.5352" clip-path="url(#clipPath2)" font-family="sans-serif" stroke="none">Expert Knowledge</text>
    </g>
    <g fill="white" text-rendering="geometricPrecision" shape-rendering="geometricPrecision" transform="matrix(1,0,0,1,-195,-322)" stroke="white">
      <rect x="351.0018" y="521" clip-path="url(#clipPath2)" width="109.1847" rx="4" ry="4" height="30" stroke="none"/>
    </g>
    <g text-rendering="geometricPrecision" stroke-miterlimit="1.45" shape-rendering="geometricPrecision" transform="matrix(1,0,0,1,-195,-322)" stroke-linecap="butt">
      <rect x="351.0018" y="521" clip-path="url(#clipPath2)" fill="none" width="109.1847" rx="4" ry="4" height="30"/>
      <text x="361.1889" xml:space="preserve" y="540.5352" clip-path="url(#clipPath2)" font-family="sans-serif" stroke="none">Logic Formulae</text>
    </g>
    <g fill="silver" text-rendering="geometricPrecision" shape-rendering="geometricPrecision" transform="matrix(1,0,0,1,-195,-322)" stroke="silver">
      <rect x="478.4581" y="521" clip-path="url(#clipPath2)" width="87.8245" rx="4" ry="4" height="48" stroke="none"/>
    </g>
    <g text-rendering="geometricPrecision" stroke-miterlimit="1.45" shape-rendering="geometricPrecision" transform="matrix(1,0,0,1,-195,-322)" stroke-linecap="butt">
      <rect x="478.4581" y="521" clip-path="url(#clipPath2)" fill="none" width="87.8245" rx="4" ry="4" height="48"/>
      <text x="496.2874" xml:space="preserve" y="542.4688" clip-path="url(#clipPath2)" font-family="sans-serif" stroke="none">Predictor</text>
      <text x="490.0208" xml:space="preserve" y="556.6016" clip-path="url(#clipPath2)" font-family="sans-serif" stroke="none">Structuring</text>
    </g>
    <g fill="silver" text-rendering="geometricPrecision" shape-rendering="geometricPrecision" transform="matrix(1,0,0,1,-195,-322)" stroke="silver">
      <rect x="689.7395" y="521" clip-path="url(#clipPath2)" width="76.6045" rx="4" ry="4" height="48" stroke="none"/>
    </g>
    <g text-rendering="geometricPrecision" stroke-miterlimit="1.45" shape-rendering="geometricPrecision" transform="matrix(1,0,0,1,-195,-322)" stroke-linecap="butt">
      <rect x="689.7395" y="521" clip-path="url(#clipPath2)" fill="none" width="76.6045" rx="4" ry="4" height="48"/>
      <text x="707.3522" xml:space="preserve" y="542.4688" clip-path="url(#clipPath2)" font-family="sans-serif" stroke="none">Guided</text>
      <text x="702.8083" xml:space="preserve" y="556.6016" clip-path="url(#clipPath2)" font-family="sans-serif" stroke="none">Learning</text>
    </g>
    <g fill="silver" text-rendering="geometricPrecision" shape-rendering="geometricPrecision" transform="matrix(1,0,0,1,-195,-322)" stroke="silver">
      <rect x="881.8412" y="625" clip-path="url(#clipPath2)" width="35.4158" rx="4" ry="4" height="30" stroke="none"/>
    </g>
    <g text-rendering="geometricPrecision" stroke-miterlimit="1.45" shape-rendering="geometricPrecision" transform="matrix(1,0,0,1,-195,-322)" stroke-linecap="butt">
      <rect x="881.8412" y="625" clip-path="url(#clipPath2)" fill="none" width="35.4158" rx="4" ry="4" height="30"/>
      <text x="893.1155" xml:space="preserve" y="644.5352" clip-path="url(#clipPath2)" font-family="sans-serif" stroke="none">FF</text>
    </g>
    <g fill="silver" text-rendering="geometricPrecision" shape-rendering="geometricPrecision" transform="matrix(1,0,0,1,-195,-322)" stroke="silver">
      <rect x="881.8412" y="661.25" clip-path="url(#clipPath2)" width="41.0859" rx="4" ry="4" height="30" stroke="none"/>
    </g>
    <g text-rendering="geometricPrecision" stroke-miterlimit="1.45" shape-rendering="geometricPrecision" transform="matrix(1,0,0,1,-195,-322)" stroke-linecap="butt">
      <rect x="881.8412" y="661.25" clip-path="url(#clipPath2)" fill="none" width="41.0859" rx="4" ry="4" height="30"/>
      <text x="889.3675" xml:space="preserve" y="680.7852" clip-path="url(#clipPath2)" font-family="sans-serif" stroke="none">CNN</text>
    </g>
    <g fill="silver" text-rendering="geometricPrecision" shape-rendering="geometricPrecision" transform="matrix(1,0,0,1,-195,-322)" stroke="silver">
      <rect x="970.0495" y="624.75" clip-path="url(#clipPath2)" width="101.8925" rx="4" ry="4" height="30" stroke="none"/>
    </g>
    <g text-rendering="geometricPrecision" stroke-miterlimit="1.45" shape-rendering="geometricPrecision" transform="matrix(1,0,0,1,-195,-322)" stroke-linecap="butt">
      <rect x="970.0495" y="624.75" clip-path="url(#clipPath2)" fill="none" width="101.8925" rx="4" ry="4" height="30"/>
      <text x="978.1842" xml:space="preserve" y="644.2852" clip-path="url(#clipPath2)" font-family="sans-serif" stroke="none">logic inference</text>
    </g>
    <g fill="silver" text-rendering="geometricPrecision" shape-rendering="geometricPrecision" transform="matrix(1,0,0,1,-195,-322)" stroke="silver">
      <rect x="970.0495" y="675.75" clip-path="url(#clipPath2)" width="128.2968" rx="4" ry="4" height="30" stroke="none"/>
    </g>
    <g text-rendering="geometricPrecision" stroke-miterlimit="1.45" shape-rendering="geometricPrecision" transform="matrix(1,0,0,1,-195,-322)" stroke-linecap="butt">
      <rect x="970.0495" y="675.75" clip-path="url(#clipPath2)" fill="none" width="128.2968" rx="4" ry="4" height="30"/>
      <text x="974.4644" xml:space="preserve" y="695.2852" clip-path="url(#clipPath2)" font-family="sans-serif" stroke="none">information retrieval</text>
    </g>
    <g fill="silver" text-rendering="geometricPrecision" shape-rendering="geometricPrecision" transform="matrix(1,0,0,1,-195,-322)" stroke="silver">
      <rect x="970.0495" y="726.75" clip-path="url(#clipPath2)" width="91.8505" rx="4" ry="4" height="30" stroke="none"/>
    </g>
    <g text-rendering="geometricPrecision" stroke-miterlimit="1.45" shape-rendering="geometricPrecision" transform="matrix(1,0,0,1,-195,-322)" stroke-linecap="butt">
      <rect x="970.0495" y="726.75" clip-path="url(#clipPath2)" fill="none" width="91.8505" rx="4" ry="4" height="30"/>
      <text x="974.1065" xml:space="preserve" y="746.2852" clip-path="url(#clipPath2)" font-family="sans-serif" stroke="none">KB completion</text>
    </g>
    <g fill="silver" text-rendering="geometricPrecision" shape-rendering="geometricPrecision" transform="matrix(1,0,0,1,-195,-322)" stroke="silver">
      <rect x="970.0495" y="777.75" clip-path="url(#clipPath2)" width="71.5284" rx="4" ry="4" height="30" stroke="none"/>
    </g>
    <g text-rendering="geometricPrecision" stroke-miterlimit="1.45" shape-rendering="geometricPrecision" transform="matrix(1,0,0,1,-195,-322)" stroke-linecap="butt">
      <rect x="970.0495" y="777.75" clip-path="url(#clipPath2)" fill="none" width="71.5284" rx="4" ry="4" height="30"/>
      <text x="978.4152" xml:space="preserve" y="797.2852" clip-path="url(#clipPath2)" font-family="sans-serif" stroke="none">KB fusion</text>
    </g>
    <g fill="silver" text-rendering="geometricPrecision" shape-rendering="geometricPrecision" transform="matrix(1,0,0,1,-195,-322)" stroke="silver">
      <rect x="428.1652" y="602" clip-path="url(#clipPath2)" width="39.9082" rx="4" ry="4" height="30" stroke="none"/>
    </g>
    <g text-rendering="geometricPrecision" stroke-miterlimit="1.45" shape-rendering="geometricPrecision" transform="matrix(1,0,0,1,-195,-322)" stroke-linecap="butt">
      <rect x="428.1652" y="602" clip-path="url(#clipPath2)" fill="none" width="39.9082" rx="4" ry="4" height="30"/>
      <text x="433.5705" xml:space="preserve" y="621.5352" clip-path="url(#clipPath2)" font-family="sans-serif" stroke="none">FOL-</text>
    </g>
    <g fill="silver" text-rendering="geometricPrecision" shape-rendering="geometricPrecision" transform="matrix(1,0,0,1,-195,-322)" stroke="silver">
      <rect x="428.1652" y="653" clip-path="url(#clipPath2)" width="58.5083" rx="4" ry="4" height="30" stroke="none"/>
    </g>
    <g text-rendering="geometricPrecision" stroke-miterlimit="1.45" shape-rendering="geometricPrecision" transform="matrix(1,0,0,1,-195,-322)" stroke-linecap="butt">
      <rect x="428.1652" y="653" clip-path="url(#clipPath2)" fill="none" width="58.5083" rx="4" ry="4" height="30"/>
      <text x="434.893" xml:space="preserve" y="672.5352" clip-path="url(#clipPath2)" font-family="sans-serif" stroke="none">Datalog</text>
    </g>
    <g fill="silver" text-rendering="geometricPrecision" shape-rendering="geometricPrecision" transform="matrix(1,0,0,1,-195,-322)" stroke="silver">
      <rect x="341.8188" y="602" clip-path="url(#clipPath2)" width="38.6722" rx="4" ry="4" height="30" stroke="none"/>
    </g>
    <g text-rendering="geometricPrecision" stroke-miterlimit="1.45" shape-rendering="geometricPrecision" transform="matrix(1,0,0,1,-195,-322)" stroke-linecap="butt">
      <rect x="341.8188" y="602" clip-path="url(#clipPath2)" fill="none" width="38.6722" rx="4" ry="4" height="30"/>
      <text x="350.0777" xml:space="preserve" y="621.5352" clip-path="url(#clipPath2)" font-family="sans-serif" stroke="none">FOL</text>
    </g>
    <g fill="silver" text-rendering="geometricPrecision" shape-rendering="geometricPrecision" transform="matrix(1,0,0,1,-195,-322)" stroke="silver">
      <rect x="292.6664" y="653" clip-path="url(#clipPath2)" width="87.8245" rx="4" ry="4" height="30" stroke="none"/>
    </g>
    <g text-rendering="geometricPrecision" stroke-miterlimit="1.45" shape-rendering="geometricPrecision" transform="matrix(1,0,0,1,-195,-322)" stroke-linecap="butt">
      <rect x="292.6664" y="653" clip-path="url(#clipPath2)" fill="none" width="87.8245" rx="4" ry="4" height="30"/>
      <text x="298.024" xml:space="preserve" y="672.5352" clip-path="url(#clipPath2)" font-family="sans-serif" stroke="none">Horn Clauses</text>
    </g>
    <g fill="silver" text-rendering="geometricPrecision" shape-rendering="geometricPrecision" transform="matrix(1,0,0,1,-195,-322)" stroke="silver">
      <rect x="428.1652" y="704" clip-path="url(#clipPath2)" width="120.2968" rx="4" ry="4" height="30" stroke="none"/>
    </g>
    <g text-rendering="geometricPrecision" stroke-miterlimit="1.45" shape-rendering="geometricPrecision" transform="matrix(1,0,0,1,-195,-322)" stroke-linecap="butt">
      <rect x="428.1652" y="704" clip-path="url(#clipPath2)" fill="none" width="120.2968" rx="4" ry="4" height="30"/>
      <text x="432.8341" xml:space="preserve" y="723.5352" clip-path="url(#clipPath2)" font-family="sans-serif" stroke="none">Propositional Logic</text>
    </g>
    <g fill="silver" text-rendering="geometricPrecision" shape-rendering="geometricPrecision" transform="matrix(1,0,0,1,-195,-322)" stroke="silver">
      <rect x="352.6188" y="704" clip-path="url(#clipPath2)" width="27.8721" rx="4" ry="4" height="30" stroke="none"/>
    </g>
    <g text-rendering="geometricPrecision" stroke-miterlimit="1.45" shape-rendering="geometricPrecision" transform="matrix(1,0,0,1,-195,-322)" stroke-linecap="butt">
      <rect x="352.6188" y="704" clip-path="url(#clipPath2)" fill="none" width="27.8721" rx="4" ry="4" height="30"/>
      <text x="358.302" xml:space="preserve" y="723.5352" clip-path="url(#clipPath2)" font-family="sans-serif" stroke="none">KG</text>
    </g>
    <g fill="silver" text-rendering="geometricPrecision" shape-rendering="geometricPrecision" transform="matrix(1,0,0,1,-195,-322)" stroke="silver">
      <rect x="584.0988" y="521" clip-path="url(#clipPath2)" width="87.8245" rx="4" ry="4" height="48" stroke="none"/>
    </g>
    <g text-rendering="geometricPrecision" stroke-miterlimit="1.45" shape-rendering="geometricPrecision" transform="matrix(1,0,0,1,-195,-322)" stroke-linecap="butt">
      <rect x="584.0988" y="521" clip-path="url(#clipPath2)" fill="none" width="87.8245" rx="4" ry="4" height="48"/>
      <text x="596.1243" xml:space="preserve" y="542.4688" clip-path="url(#clipPath2)" font-family="sans-serif" stroke="none">Knowledge</text>
      <text x="595.2864" xml:space="preserve" y="556.6016" clip-path="url(#clipPath2)" font-family="sans-serif" stroke="none">Embedding</text>
    </g>
    <g fill="silver" text-rendering="geometricPrecision" shape-rendering="geometricPrecision" transform="matrix(1,0,0,1,-195,-322)" stroke="silver">
      <rect x="881.8412" y="697.25" clip-path="url(#clipPath2)" width="41.0859" rx="4" ry="4" height="30" stroke="none"/>
    </g>
    <g text-rendering="geometricPrecision" stroke-miterlimit="1.45" shape-rendering="geometricPrecision" transform="matrix(1,0,0,1,-195,-322)" stroke-linecap="butt">
      <rect x="881.8412" y="697.25" clip-path="url(#clipPath2)" fill="none" width="41.0859" rx="4" ry="4" height="30"/>
      <text x="889.1829" xml:space="preserve" y="716.7852" clip-path="url(#clipPath2)" font-family="sans-serif" stroke="none">GNN</text>
    </g>
    <g fill="silver" text-rendering="geometricPrecision" shape-rendering="geometricPrecision" transform="matrix(1,0,0,1,-195,-322)" stroke="silver">
      <rect x="881.8412" y="733.25" clip-path="url(#clipPath2)" width="41.0859" rx="4" ry="4" height="30" stroke="none"/>
    </g>
    <g text-rendering="geometricPrecision" stroke-miterlimit="1.45" shape-rendering="geometricPrecision" transform="matrix(1,0,0,1,-195,-322)" stroke-linecap="butt">
      <rect x="881.8412" y="733.25" clip-path="url(#clipPath2)" fill="none" width="41.0859" rx="4" ry="4" height="30"/>
      <text x="889.7249" xml:space="preserve" y="752.7852" clip-path="url(#clipPath2)" font-family="sans-serif" stroke="none">RNN</text>
    </g>
    <g fill="silver" text-rendering="geometricPrecision" shape-rendering="geometricPrecision" transform="matrix(1,0,0,1,-195,-322)" stroke="silver">
      <rect x="881.8412" y="769.25" clip-path="url(#clipPath2)" width="41.0859" rx="4" ry="4" height="30" stroke="none"/>
    </g>
    <g text-rendering="geometricPrecision" stroke-miterlimit="1.45" shape-rendering="geometricPrecision" transform="matrix(1,0,0,1,-195,-322)" stroke-linecap="butt">
      <rect x="881.8412" y="769.25" clip-path="url(#clipPath2)" fill="none" width="41.0859" rx="4" ry="4" height="30"/>
      <text x="893.765" xml:space="preserve" y="788.7852" clip-path="url(#clipPath2)" font-family="sans-serif" stroke="none">BM</text>
    </g>
    <g fill="silver" text-rendering="geometricPrecision" shape-rendering="geometricPrecision" transform="matrix(1,0,0,1,-195,-322)" stroke="silver">
      <rect x="881.8412" y="805.25" clip-path="url(#clipPath2)" width="41.0859" rx="4" ry="4" height="30" stroke="none"/>
    </g>
    <g text-rendering="geometricPrecision" stroke-miterlimit="1.45" shape-rendering="geometricPrecision" transform="matrix(1,0,0,1,-195,-322)" stroke-linecap="butt">
      <rect x="881.8412" y="805.25" clip-path="url(#clipPath2)" fill="none" width="41.0859" rx="4" ry="4" height="30"/>
      <text x="894.7962" xml:space="preserve" y="824.7852" clip-path="url(#clipPath2)" font-family="sans-serif" stroke="none">TR</text>
    </g>
    <g fill="silver" text-rendering="geometricPrecision" shape-rendering="geometricPrecision" transform="matrix(1,0,0,1,-195,-322)" stroke="silver">
      <rect x="881.8412" y="841.25" clip-path="url(#clipPath2)" width="41.0859" rx="4" ry="4" height="30" stroke="none"/>
    </g>
    <g text-rendering="geometricPrecision" stroke-miterlimit="1.45" shape-rendering="geometricPrecision" transform="matrix(1,0,0,1,-195,-322)" stroke-linecap="butt">
      <rect x="881.8412" y="841.25" clip-path="url(#clipPath2)" fill="none" width="41.0859" rx="4" ry="4" height="30"/>
      <text x="894.9925" xml:space="preserve" y="860.7852" clip-path="url(#clipPath2)" font-family="sans-serif" stroke="none">AE</text>
    </g>
    <g fill="silver" text-rendering="geometricPrecision" shape-rendering="geometricPrecision" transform="matrix(1,0,0,1,-195,-322)" stroke="silver">
      <rect x="881.8412" y="877.25" clip-path="url(#clipPath2)" width="41.0859" rx="4" ry="4" height="30" stroke="none"/>
    </g>
    <g text-rendering="geometricPrecision" stroke-miterlimit="1.45" shape-rendering="geometricPrecision" transform="matrix(1,0,0,1,-195,-322)" stroke-linecap="butt">
      <rect x="881.8412" y="877.25" clip-path="url(#clipPath2)" fill="none" width="41.0859" rx="4" ry="4" height="30"/>
      <text x="890.0062" xml:space="preserve" y="896.7852" clip-path="url(#clipPath2)" font-family="sans-serif" stroke="none">DBN</text>
    </g>
    <g fill="silver" text-rendering="geometricPrecision" shape-rendering="geometricPrecision" transform="matrix(1,0,0,1,-195,-322)" stroke="silver">
      <rect x="1167.2421" y="588.25" clip-path="url(#clipPath2)" width="71.5284" rx="4" ry="4" height="30" stroke="none"/>
    </g>
    <g text-rendering="geometricPrecision" stroke-miterlimit="1.45" shape-rendering="geometricPrecision" transform="matrix(1,0,0,1,-195,-322)" stroke-linecap="butt">
      <rect x="1167.2421" y="588.25" clip-path="url(#clipPath2)" fill="none" width="71.5284" rx="4" ry="4" height="30"/>
      <text x="1174.8871" xml:space="preserve" y="607.7852" clip-path="url(#clipPath2)" font-family="sans-serif" stroke="none">deductive</text>
    </g>
    <g fill="silver" text-rendering="geometricPrecision" shape-rendering="geometricPrecision" transform="matrix(1,0,0,1,-195,-322)" stroke="silver">
      <rect x="1167.2421" y="624.75" clip-path="url(#clipPath2)" width="71.5284" rx="4" ry="4" height="30" stroke="none"/>
    </g>
    <g text-rendering="geometricPrecision" stroke-miterlimit="1.45" shape-rendering="geometricPrecision" transform="matrix(1,0,0,1,-195,-322)" stroke-linecap="butt">
      <rect x="1167.2421" y="624.75" clip-path="url(#clipPath2)" fill="none" width="71.5284" rx="4" ry="4" height="30"/>
      <text x="1176.5482" xml:space="preserve" y="644.2852" clip-path="url(#clipPath2)" font-family="sans-serif" stroke="none">inductive</text>
    </g>
    <g fill="silver" text-rendering="geometricPrecision" shape-rendering="geometricPrecision" transform="matrix(1,0,0,1,-195,-322)" stroke="silver">
      <rect x="1167.2421" y="661.25" clip-path="url(#clipPath2)" width="87.8245" rx="4" ry="4" height="30" stroke="none"/>
    </g>
    <g text-rendering="geometricPrecision" stroke-miterlimit="1.45" shape-rendering="geometricPrecision" transform="matrix(1,0,0,1,-195,-322)" stroke-linecap="butt">
      <rect x="1167.2421" y="661.25" clip-path="url(#clipPath2)" fill="none" width="87.8245" rx="4" ry="4" height="30"/>
      <text x="1175.0576" xml:space="preserve" y="680.7852" clip-path="url(#clipPath2)" font-family="sans-serif" stroke="none">probabilistic</text>
    </g>
    <g fill="white" text-rendering="geometricPrecision" shape-rendering="geometricPrecision" transform="matrix(1,0,0,1,-195,-322)" stroke="white">
      <rect x="736.6833" y="433" clip-path="url(#clipPath2)" width="109.1847" rx="4" ry="4" height="30" stroke="none"/>
    </g>
    <g text-rendering="geometricPrecision" stroke-miterlimit="1.45" shape-rendering="geometricPrecision" transform="matrix(1,0,0,1,-195,-322)" stroke-linecap="butt">
      <rect x="736.6833" y="433" clip-path="url(#clipPath2)" fill="none" width="109.1847" rx="4" ry="4" height="30"/>
      <text x="744.4036" xml:space="preserve" y="452.5352" clip-path="url(#clipPath2)" font-family="sans-serif" stroke="none">Target Predictor</text>
    </g>
    <g fill="silver" text-rendering="geometricPrecision" shape-rendering="geometricPrecision" transform="matrix(1,0,0,1,-195,-322)" stroke="silver">
      <rect x="808.0723" y="529" clip-path="url(#clipPath2)" width="109.1847" rx="4" ry="4" height="30" stroke="none"/>
    </g>
    <g text-rendering="geometricPrecision" stroke-miterlimit="1.45" shape-rendering="geometricPrecision" transform="matrix(1,0,0,1,-195,-322)" stroke-linecap="butt">
      <rect x="808.0723" y="529" clip-path="url(#clipPath2)" fill="none" width="109.1847" rx="4" ry="4" height="30"/>
      <text x="819.8268" xml:space="preserve" y="548.5352" clip-path="url(#clipPath2)" font-family="sans-serif" stroke="none">Markov Chains</text>
    </g>
    <g fill="silver" text-rendering="geometricPrecision" shape-rendering="geometricPrecision" transform="matrix(1,0,0,1,-195,-322)" stroke="silver">
      <rect x="808.0723" y="493" clip-path="url(#clipPath2)" width="109.1847" rx="4" ry="4" height="30" stroke="none"/>
    </g>
    <g text-rendering="geometricPrecision" stroke-miterlimit="1.45" shape-rendering="geometricPrecision" transform="matrix(1,0,0,1,-195,-322)" stroke-linecap="butt">
      <rect x="808.0723" y="493" clip-path="url(#clipPath2)" fill="none" width="109.1847" rx="4" ry="4" height="30"/>
      <text x="815.1129" xml:space="preserve" y="512.5352" clip-path="url(#clipPath2)" font-family="sans-serif" stroke="none">Kernel Machines</text>
      <path fill="none" d="M391.1455 436.9869 L638.8175 387 L638.8175 357" clip-path="url(#clipPath2)"/>
      <path d="M634.8175 365 L642.8175 365 Z" clip-path="url(#clipPath2)" stroke="none"/>
      <path fill="none" stroke-miterlimit="10" d="M634.8175 365 L642.8175 365 Z" clip-path="url(#clipPath2)" stroke-linecap="square"/>
      <path fill="none" d="M630.623 433.0146 L638.8175 386 L638.8175 357" clip-path="url(#clipPath2)"/>
      <path d="M634.8175 365 L642.8175 365 Z" clip-path="url(#clipPath2)" stroke="none"/>
      <path fill="none" stroke-miterlimit="10" d="M634.8175 365 L642.8175 365 Z" clip-path="url(#clipPath2)" stroke-linecap="square"/>
      <path fill="none" d="M1016.2772 521.0229 L1035.0936 501 L1035.0936 462.9839" clip-path="url(#clipPath2)"/>
      <path d="M1031.0936 470.9839 L1039.0936 470.9839 Z" clip-path="url(#clipPath2)" stroke="none"/>
      <path fill="none" stroke-miterlimit="10" d="M1031.0936 470.9839 L1039.0936 470.9839 Z" clip-path="url(#clipPath2)" stroke-linecap="square"/>
      <path fill="none" d="M1062.1115 525.4662 L1035.0936 501 L1035.0936 462.9839" clip-path="url(#clipPath2)"/>
      <path d="M1031.0936 470.9839 L1039.0936 470.9839 Z" clip-path="url(#clipPath2)" stroke="none"/>
      <path fill="none" stroke-miterlimit="10" d="M1031.0936 470.9839 L1039.0936 470.9839 Z" clip-path="url(#clipPath2)" stroke-linecap="square"/>
      <path fill="none" d="M1004.7635 443.3312 L638.8175 387 L638.8175 357" clip-path="url(#clipPath2)"/>
      <path d="M634.8175 365 L642.8175 365 Z" clip-path="url(#clipPath2)" stroke="none"/>
      <path fill="none" stroke-miterlimit="10" d="M634.8175 365 L642.8175 365 Z" clip-path="url(#clipPath2)" stroke-linecap="square"/>
      <path fill="none" d="M286.1075 520.9927 L336.5787 491 L336.5787 466.9912" clip-path="url(#clipPath2)"/>
      <path d="M332.5787 470.9912 L340.5787 462.9912 ZM332.5787 462.9912 L340.5787 470.9912 Z" clip-path="url(#clipPath2)" stroke="none"/>
      <path fill="none" stroke-miterlimit="10" d="M332.5787 470.9912 L340.5787 462.9912 ZM332.5787 462.9912 L340.5787 470.9912 Z" clip-path="url(#clipPath2)" stroke-linecap="square"/>
      <path fill="none" d="M382.5778 520.9927 L336.5787 491 L336.5787 466.9912" clip-path="url(#clipPath2)"/>
      <path d="M332.5787 470.9912 L340.5787 462.9912 ZM332.5787 462.9912 L340.5787 470.9912 Z" clip-path="url(#clipPath2)" stroke="none"/>
      <path fill="none" stroke-miterlimit="10" d="M332.5787 470.9912 L340.5787 462.9912 ZM332.5787 462.9912 L340.5787 470.9912 Z" clip-path="url(#clipPath2)" stroke-linecap="square"/>
      <path fill="none" d="M565.4675 522.5623 L628.011 490 L628.011 466.9707" clip-path="url(#clipPath2)"/>
      <path d="M624.011 470.9707 L632.011 462.9707 ZM624.011 462.9707 L632.011 470.9707 Z" clip-path="url(#clipPath2)" stroke="none"/>
      <path fill="none" stroke-miterlimit="10" d="M624.011 470.9707 L632.011 462.9707 ZM624.011 462.9707 L632.011 470.9707 Z" clip-path="url(#clipPath2)" stroke-linecap="square"/>
      <path fill="none" d="M689.9685 523.6855 L628.011 489 L628.011 467.0146" clip-path="url(#clipPath2)"/>
      <path d="M624.011 471.0146 L632.011 463.0146 ZM624.011 463.0146 L632.011 471.0146 Z" clip-path="url(#clipPath2)" stroke="none"/>
      <path fill="none" stroke-miterlimit="10" d="M624.011 471.0146 L632.011 463.0146 ZM624.011 463.0146 L632.011 471.0146 Z" clip-path="url(#clipPath2)" stroke-linecap="square"/>
      <path fill="none" d="M881.8633 640 L862.6647 640 L862.6647 598.9707" clip-path="url(#clipPath2)"/>
      <path d="M858.6647 602.9707 L866.6647 594.9707 ZM858.6647 594.9707 L866.6647 602.9707 Z" clip-path="url(#clipPath2)" stroke="none"/>
      <path fill="none" stroke-miterlimit="10" d="M858.6647 602.9707 L866.6647 594.9707 ZM858.6647 594.9707 L866.6647 602.9707 Z" clip-path="url(#clipPath2)" stroke-linecap="square"/>
      <path fill="none" d="M881.865 676.25 L862.6647 676.25 L862.6647 598.9921" clip-path="url(#clipPath2)"/>
      <path d="M858.6647 602.9921 L866.6647 594.9921 ZM858.6647 594.9921 L866.6647 602.9921 Z" clip-path="url(#clipPath2)" stroke="none"/>
      <path fill="none" stroke-miterlimit="10" d="M858.6647 602.9921 L866.6647 594.9921 ZM858.6647 594.9921 L866.6647 602.9921 Z" clip-path="url(#clipPath2)" stroke-linecap="square"/>
      <path fill="none" d="M970.0237 639.75 L951.4482 639.75 L951.4482 594.7702" clip-path="url(#clipPath2)"/>
      <path d="M947.4482 602.7702 L955.4482 602.7702 Z" clip-path="url(#clipPath2)" stroke="none"/>
      <path fill="none" stroke-miterlimit="10" d="M947.4482 602.7702 L955.4482 602.7702 Z" clip-path="url(#clipPath2)" stroke-linecap="square"/>
      <path fill="none" d="M970.075 690.75 L951.4482 690.75 L951.4482 594.7864" clip-path="url(#clipPath2)"/>
      <path d="M947.4482 602.7864 L955.4482 602.7864 Z" clip-path="url(#clipPath2)" stroke="none"/>
      <path fill="none" stroke-miterlimit="10" d="M947.4482 602.7864 L955.4482 602.7864 Z" clip-path="url(#clipPath2)" stroke-linecap="square"/>
      <path fill="none" d="M970.0689 741.75 L951.4482 741.75 L951.4482 594.7702" clip-path="url(#clipPath2)"/>
      <path d="M947.4482 602.7702 L955.4482 602.7702 Z" clip-path="url(#clipPath2)" stroke="none"/>
      <path fill="none" stroke-miterlimit="10" d="M947.4482 602.7702 L955.4482 602.7702 Z" clip-path="url(#clipPath2)" stroke-linecap="square"/>
      <path fill="none" d="M970.0567 792.75 L951.4482 792.75 L951.4482 594.7939" clip-path="url(#clipPath2)"/>
      <path d="M947.4482 602.7939 L955.4482 602.7939 Z" clip-path="url(#clipPath2)" stroke="none"/>
      <path fill="none" stroke-miterlimit="10" d="M947.4482 602.7939 L955.4482 602.7939 Z" clip-path="url(#clipPath2)" stroke-linecap="square"/>
      <path fill="none" d="M428.1441 617 L405.5942 617 L405.5942 555.0059" clip-path="url(#clipPath2)"/>
      <path d="M401.5942 559.0059 L409.5942 551.0059 ZM401.5942 551.0059 L409.5942 559.0059 Z" clip-path="url(#clipPath2)" stroke="none"/>
      <path fill="none" stroke-miterlimit="10" d="M401.5942 559.0059 L409.5942 551.0059 ZM401.5942 551.0059 L409.5942 559.0059 Z" clip-path="url(#clipPath2)" stroke-linecap="square"/>
      <path fill="none" d="M428.1411 668 L405.5942 668 L405.5942 555.0209" clip-path="url(#clipPath2)"/>
      <path d="M401.5942 559.0209 L409.5942 551.0209 ZM401.5942 551.0209 L409.5942 559.0209 Z" clip-path="url(#clipPath2)" stroke="none"/>
      <path fill="none" stroke-miterlimit="10" d="M401.5942 559.0209 L409.5942 551.0209 ZM401.5942 551.0209 L409.5942 559.0209 Z" clip-path="url(#clipPath2)" stroke-linecap="square"/>
      <path fill="none" d="M380.4669 617 L405.5942 617 L405.5942 554.9897" clip-path="url(#clipPath2)"/>
      <path d="M401.5942 558.9897 L409.5942 550.9897 ZM401.5942 550.9897 L409.5942 558.9897 Z" clip-path="url(#clipPath2)" stroke="none"/>
      <path fill="none" stroke-miterlimit="10" d="M401.5942 558.9897 L409.5942 550.9897 ZM401.5942 550.9897 L409.5942 558.9897 Z" clip-path="url(#clipPath2)" stroke-linecap="square"/>
      <path fill="none" d="M380.4884 668 L405.5942 668 L405.5942 554.9909" clip-path="url(#clipPath2)"/>
      <path d="M401.5942 558.9909 L409.5942 550.9909 ZM401.5942 550.9909 L409.5942 558.9909 Z" clip-path="url(#clipPath2)" stroke="none"/>
      <path fill="none" stroke-miterlimit="10" d="M401.5942 558.9909 L409.5942 550.9909 ZM401.5942 550.9909 L409.5942 558.9909 Z" clip-path="url(#clipPath2)" stroke-linecap="square"/>
      <path fill="none" d="M428.1724 719 L405.5942 719 L405.5942 554.967" clip-path="url(#clipPath2)"/>
      <path d="M401.5942 558.967 L409.5942 550.967 ZM401.5942 550.967 L409.5942 558.967 Z" clip-path="url(#clipPath2)" stroke="none"/>
      <path fill="none" stroke-miterlimit="10" d="M401.5942 558.967 L409.5942 550.967 ZM401.5942 550.967 L409.5942 558.967 Z" clip-path="url(#clipPath2)" stroke-linecap="square"/>
      <path fill="none" d="M380.4703 719 L405.5942 719 L405.5942 554.9761" clip-path="url(#clipPath2)"/>
      <path d="M401.5942 558.9761 L409.5942 550.9761 ZM401.5942 550.9761 L409.5942 558.9761 Z" clip-path="url(#clipPath2)" stroke="none"/>
      <path fill="none" stroke-miterlimit="10" d="M401.5942 558.9761 L409.5942 550.9761 ZM401.5942 550.9761 L409.5942 558.9761 Z" clip-path="url(#clipPath2)" stroke-linecap="square"/>
      <path fill="none" d="M628.011 521.0195 L628.011 489 L628.011 466.9758" clip-path="url(#clipPath2)"/>
      <path d="M624.011 470.9758 L632.011 462.9758 ZM624.011 462.9758 L632.011 470.9758 Z" clip-path="url(#clipPath2)" stroke="none"/>
      <path fill="none" stroke-miterlimit="10" d="M624.011 470.9758 L632.011 462.9758 ZM624.011 462.9758 L632.011 470.9758 Z" clip-path="url(#clipPath2)" stroke-linecap="square"/>
      <path fill="none" d="M881.865 712.25 L862.6647 712.25 L862.6647 599.0137" clip-path="url(#clipPath2)"/>
      <path d="M858.6647 603.0137 L866.6647 595.0137 ZM858.6647 595.0137 L866.6647 603.0137 Z" clip-path="url(#clipPath2)" stroke="none"/>
      <path fill="none" stroke-miterlimit="10" d="M858.6647 603.0137 L866.6647 595.0137 ZM858.6647 595.0137 L866.6647 603.0137 Z" clip-path="url(#clipPath2)" stroke-linecap="square"/>
      <path fill="none" d="M881.865 748.25 L862.6647 748.25 L862.6647 598.993" clip-path="url(#clipPath2)"/>
      <path d="M858.6647 602.993 L866.6647 594.993 ZM858.6647 594.993 L866.6647 602.993 Z" clip-path="url(#clipPath2)" stroke="none"/>
      <path fill="none" stroke-miterlimit="10" d="M858.6647 602.993 L866.6647 594.993 ZM858.6647 594.993 L866.6647 602.993 Z" clip-path="url(#clipPath2)" stroke-linecap="square"/>
      <path fill="none" d="M881.865 784.25 L862.6647 784.25 L862.6647 599.0096" clip-path="url(#clipPath2)"/>
      <path d="M858.6647 603.0096 L866.6647 595.0096 ZM858.6647 595.0096 L866.6647 603.0096 Z" clip-path="url(#clipPath2)" stroke="none"/>
      <path fill="none" stroke-miterlimit="10" d="M858.6647 603.0096 L866.6647 595.0096 ZM858.6647 595.0096 L866.6647 603.0096 Z" clip-path="url(#clipPath2)" stroke-linecap="square"/>
      <path fill="none" d="M881.865 820.25 L862.6647 820.25 L862.6647 598.9863" clip-path="url(#clipPath2)"/>
      <path d="M858.6647 602.9863 L866.6647 594.9863 ZM858.6647 594.9863 L866.6647 602.9863 Z" clip-path="url(#clipPath2)" stroke="none"/>
      <path fill="none" stroke-miterlimit="10" d="M858.6647 602.9863 L866.6647 594.9863 ZM858.6647 594.9863 L866.6647 602.9863 Z" clip-path="url(#clipPath2)" stroke-linecap="square"/>
      <path fill="none" d="M881.865 856.25 L862.6647 856.25 L862.6647 599.0062" clip-path="url(#clipPath2)"/>
      <path d="M858.6647 603.0062 L866.6647 595.0062 ZM858.6647 595.0062 L866.6647 603.0062 Z" clip-path="url(#clipPath2)" stroke="none"/>
      <path fill="none" stroke-miterlimit="10" d="M858.6647 603.0062 L866.6647 595.0062 ZM858.6647 595.0062 L866.6647 603.0062 Z" clip-path="url(#clipPath2)" stroke-linecap="square"/>
      <path fill="none" d="M881.865 892.25 L862.6647 892.25 L862.6647 598.9797" clip-path="url(#clipPath2)"/>
      <path d="M858.6647 602.9797 L866.6647 594.9797 ZM858.6647 594.9797 L866.6647 602.9797 Z" clip-path="url(#clipPath2)" stroke="none"/>
      <path fill="none" stroke-miterlimit="10" d="M858.6647 602.9797 L866.6647 594.9797 ZM858.6647 594.9797 L866.6647 602.9797 Z" clip-path="url(#clipPath2)" stroke-linecap="square"/>
      <path fill="none" d="M1168.5947 617.2048 L1113 639.75 L1071.9688 639.75" clip-path="url(#clipPath2)"/>
      <line transform="matrix(-1,0,0,-1,1071.9688,639.75)" clip-path="url(#clipPath3)" fill="none" x1="-10" x2="-10" y1="-8" y2="8"/>
    </g>
    <g text-rendering="geometricPrecision" stroke-miterlimit="1.45" shape-rendering="geometricPrecision" transform="matrix(1,0,0,1,-195,-322)" stroke-linecap="butt">
      <path fill="none" d="M1167.2747 639.75 L1071.9181 639.75" clip-path="url(#clipPath2)"/>
      <line transform="matrix(-1,0,0,-1,1071.9181,639.75)" clip-path="url(#clipPath4)" fill="none" x1="-10" x2="-10" y1="-8" y2="8"/>
    </g>
    <g text-rendering="geometricPrecision" stroke-miterlimit="1.45" shape-rendering="geometricPrecision" transform="matrix(1,0,0,1,-195,-322)" stroke-linecap="butt">
      <path fill="none" d="M1170.0851 661.4308 L1110 639.75 L1071.9733 639.75" clip-path="url(#clipPath2)"/>
      <line transform="matrix(-1,0,0,-1,1071.9733,639.75)" clip-path="url(#clipPath5)" fill="none" x1="-10" x2="-10" y1="-8" y2="8"/>
    </g>
    <g text-rendering="geometricPrecision" stroke-miterlimit="1.45" shape-rendering="geometricPrecision" transform="matrix(1,0,0,1,-195,-322)" stroke-linecap="butt">
      <path fill="none" d="M808.0424 580 L791.2757 580 L791.2757 462.9854" clip-path="url(#clipPath2)"/>
      <path d="M787.2757 470.9854 L795.2757 470.9854 Z" clip-path="url(#clipPath2)" stroke="none"/>
      <path fill="none" stroke-miterlimit="10" d="M787.2757 470.9854 L795.2757 470.9854 Z" clip-path="url(#clipPath2)" stroke-linecap="square"/>
      <path fill="none" d="M754.3895 432.9995 L638.8175 386 L638.8175 357" clip-path="url(#clipPath2)"/>
      <path d="M634.8175 365 L642.8175 365 Z" clip-path="url(#clipPath2)" stroke="none"/>
      <path fill="none" stroke-miterlimit="10" d="M634.8175 365 L642.8175 365 Z" clip-path="url(#clipPath2)" stroke-linecap="square"/>
      <path fill="none" d="M808.0424 544 L791.2757 544 L791.2757 462.9531" clip-path="url(#clipPath2)"/>
      <path d="M787.2757 470.9531 L795.2757 470.9531 Z" clip-path="url(#clipPath2)" stroke="none"/>
      <path fill="none" stroke-miterlimit="10" d="M787.2757 470.9531 L795.2757 470.9531 Z" clip-path="url(#clipPath2)" stroke-linecap="square"/>
      <path fill="none" d="M808.0424 508 L791.2757 508 L791.2757 463.0008" clip-path="url(#clipPath2)"/>
      <path d="M787.2757 471.0008 L795.2757 471.0008 Z" clip-path="url(#clipPath2)" stroke="none"/>
      <path fill="none" stroke-miterlimit="10" d="M787.2757 471.0008 L795.2757 471.0008 Z" clip-path="url(#clipPath2)" stroke-linecap="square"/>
    </g>
  </g>
</svg>
